<?xml version="1.0" encoding="utf-8"?>
<!-- Generator: Adobe Illustrator 23.0.1, SVG Export Plug-In . SVG Version: 6.00 Build 0)  -->
<svg version="1.1" id="Layer_1" xmlns="http://www.w3.org/2000/svg" xmlns:xlink="http://www.w3.org/1999/xlink" x="0px" y="0px"
	 viewBox="0 0 465.59 465.59" style="enable-background:new 0 0 465.59 465.59;" xml:space="preserve">
<style type="text/css">
	.st0{fill:#6C3B3A;}
	.st1{fill:#F6E0AE;}
	.st2{fill:#87CEB3;}
	.st3{fill:#FCB318;}
	.st4{fill:#F47A34;}
	.st5{fill:#02B29F;}
</style>
<rect class="st0" width="465.59" height="465.59"/>
<path class="st1" d="M228.33,216.12c1.47-2.25,2.96-4.48,4.47-6.71c1.5,2.23,2.99,4.46,4.47,6.71c2.4-1.21,4.81-2.4,7.22-3.58
	c0.19,2.68,0.36,5.36,0.51,8.05c2.68,0.15,5.37,0.32,8.05,0.51c-1.18,2.42-2.37,4.82-3.58,7.22c2.25,1.47,4.48,2.96,6.71,4.47
	c-2.23,1.5-4.46,2.99-6.71,4.47c1.21,2.4,2.4,4.81,3.58,7.22c-2.68,0.19-5.36,0.36-8.05,0.51c-0.15,2.68-0.32,5.37-0.51,8.05
	c-2.42-1.18-4.82-2.37-7.22-3.58c-1.47,2.25-2.96,4.48-4.47,6.71c-1.5-2.23-2.99-4.46-4.47-6.71c-2.4,1.21-4.81,2.4-7.22,3.58
	c-0.19-2.68-0.36-5.36-0.51-8.05c-2.68-0.15-5.36-0.32-8.05-0.51c1.18-2.42,2.37-4.82,3.58-7.22c-2.25-1.47-4.48-2.96-6.71-4.47
	c2.23-1.5,4.46-2.99,6.71-4.47c-1.21-2.4-2.4-4.81-3.58-7.22c2.68-0.19,5.36-0.36,8.05-0.51c0.15-2.68,0.32-5.37,0.51-8.05
	C223.52,213.72,225.93,214.91,228.33,216.12z"/>
<path class="st0" d="M171.85,5.34c2.46-0.33,4.93-0.66,7.4-0.97c0.68-0.08,1.35-0.16,2.03-0.24c0.51-0.15,1.03-0.22,1.53-0.18
	c16.64-1.97,33.32-2.97,49.99-3.95c16.67,0.97,33.36,1.98,49.99,3.95c0.5-0.04,1.02,0.03,1.53,0.18c0.68,0.08,1.35,0.16,2.03,0.24
	c2.47,0.31,4.94,0.64,7.4,0.97c2.3,0.94,4.6,1.9,6.89,2.86c0.63,0.27,1.25,0.54,1.88,0.8c0.52,0.13,1,0.32,1.41,0.61
	c15.39,6.61,30.35,14.09,45.27,21.58c13.95,9.18,27.9,18.39,41.32,28.41c0.45,0.21,0.86,0.53,1.23,0.92
	c0.54,0.41,1.09,0.82,1.63,1.22c1.98,1.51,3.96,3.02,5.92,4.54c1.52,1.97,3.03,3.94,4.54,5.93c0.41,0.54,0.82,1.09,1.22,1.63
	c0.39,0.37,0.71,0.78,0.92,1.23c10.02,13.42,19.24,27.37,28.41,41.32c7.49,14.92,14.96,29.88,21.58,45.27
	c0.29,0.41,0.48,0.89,0.61,1.41c0.27,0.63,0.54,1.25,0.8,1.88c0.96,2.3,1.92,4.59,2.86,6.89c0.33,2.46,0.66,4.93,0.97,7.4
	c0.08,0.68,0.16,1.35,0.24,2.03c0.15,0.51,0.22,1.03,0.18,1.53c1.97,16.64,2.97,33.32,3.95,49.99c-0.97,16.67-1.98,33.36-3.95,49.99
	c0.04,0.5-0.03,1.02-0.18,1.53c-0.08,0.68-0.16,1.35-0.24,2.03c-0.31,2.47-0.64,4.94-0.97,7.4c-0.94,2.3-1.9,4.6-2.86,6.89
	c-0.27,0.63-0.54,1.25-0.8,1.88c-0.12,0.52-0.32,1-0.61,1.41c-6.61,15.39-14.09,30.35-21.58,45.27
	c-9.18,13.95-18.39,27.9-28.41,41.32c-0.21,0.45-0.53,0.86-0.92,1.23c-0.41,0.54-0.82,1.09-1.22,1.63
	c-1.51,1.98-3.02,3.96-4.54,5.92c-1.97,1.52-3.94,3.03-5.92,4.54c-0.54,0.41-1.09,0.82-1.63,1.22c-0.37,0.39-0.78,0.71-1.23,0.92
	c-13.42,10.02-27.37,19.24-41.32,28.41c-14.92,7.49-29.88,14.96-45.27,21.58c-0.41,0.29-0.89,0.48-1.41,0.61
	c-0.63,0.27-1.25,0.54-1.88,0.8c-2.3,0.96-4.59,1.92-6.89,2.86c-2.46,0.33-4.93,0.66-7.4,0.97c-0.68,0.08-1.35,0.16-2.03,0.24
	c-0.51,0.15-1.03,0.22-1.53,0.18c-16.64,1.97-33.32,2.97-49.99,3.95c-16.67-0.97-33.36-1.98-49.99-3.95
	c-0.5,0.04-1.02-0.03-1.53-0.18c-0.68-0.08-1.35-0.16-2.03-0.24c-2.47-0.31-4.94-0.64-7.4-0.97c-2.3-0.94-4.6-1.9-6.89-2.86
	c-0.63-0.27-1.25-0.54-1.88-0.8c-0.52-0.13-1-0.32-1.41-0.61c-15.39-6.61-30.35-14.09-45.27-21.58
	c-13.95-9.18-27.9-18.39-41.32-28.41c-0.45-0.21-0.86-0.53-1.23-0.92c-0.54-0.41-1.09-0.82-1.63-1.22
	c-1.98-1.51-3.96-3.02-5.92-4.54c-1.52-1.97-3.03-3.94-4.54-5.92c-0.41-0.54-0.82-1.09-1.22-1.63c-0.39-0.37-0.71-0.78-0.92-1.23
	c-10.02-13.42-19.24-27.37-28.41-41.32c-7.49-14.92-14.96-29.88-21.58-45.27c-0.29-0.41-0.48-0.89-0.61-1.41
	c-0.27-0.63-0.54-1.25-0.8-1.88c-0.96-2.3-1.92-4.59-2.86-6.89c-0.33-2.46-0.66-4.93-0.97-7.4c-0.08-0.68-0.16-1.35-0.24-2.03
	c-0.15-0.51-0.22-1.03-0.18-1.53C1.98,266.15,0.97,249.46,0,232.79c0.97-16.67,1.98-33.36,3.95-49.99c-0.04-0.5,0.03-1.02,0.18-1.53
	c0.08-0.68,0.16-1.35,0.24-2.03c0.31-2.47,0.64-4.94,0.97-7.4c0.94-2.3,1.9-4.6,2.86-6.89c0.27-0.63,0.54-1.25,0.8-1.88
	c0.12-0.52,0.32-1,0.61-1.41c6.61-15.39,14.09-30.35,21.58-45.27c9.18-13.95,18.39-27.9,28.41-41.32c0.21-0.45,0.53-0.86,0.92-1.23
	c0.41-0.54,0.82-1.09,1.22-1.63c1.51-1.98,3.02-3.96,4.54-5.93c1.97-1.52,3.94-3.03,5.92-4.54c0.54-0.41,1.09-0.82,1.63-1.22
	c0.37-0.39,0.78-0.71,1.23-0.92c13.42-10.02,27.37-19.24,41.32-28.41c14.92-7.49,29.88-14.96,45.27-21.58
	c0.41-0.29,0.89-0.48,1.41-0.61c0.63-0.27,1.25-0.54,1.88-0.8C167.25,7.23,169.55,6.28,171.85,5.34z M232.79,88.12
	c-4.39,0.38-8.77,0.82-13.15,1.33c-0.64,0.08-1.26,0.15-1.89,0.23c-0.39,0.1-0.78,0.14-1.18,0.14c-7.13,0.85-14.24,1.79-21.3,2.93
	c-6.69,2.54-13.32,5.28-19.91,8.11c-0.34,0.2-0.7,0.36-1.09,0.46c-0.59,0.25-1.16,0.5-1.75,0.75c-4.05,1.75-8.06,3.57-12.06,5.43
	c-3.61,2.53-7.19,5.1-10.73,7.73c-0.51,0.39-1.01,0.76-1.53,1.14c-0.29,0.29-0.61,0.52-0.95,0.71c-5.75,4.3-11.44,8.67-16.98,13.19
	c-4.52,5.55-8.89,11.23-13.19,16.98c-0.2,0.34-0.42,0.66-0.71,0.95c-0.39,0.51-0.76,1.01-1.14,1.53c-2.63,3.54-5.2,7.12-7.73,10.73
	c-1.86,3.99-3.68,8.01-5.43,12.06c-0.25,0.59-0.5,1.16-0.75,1.75c-0.11,0.39-0.27,0.75-0.46,1.09c-2.83,6.6-5.57,13.23-8.11,19.91
	c-1.14,7.06-2.08,14.17-2.93,21.3c0,0.39-0.04,0.78-0.14,1.18c-0.08,0.64-0.15,1.26-0.23,1.89c-0.51,4.38-0.94,8.77-1.33,13.15
	c0.38,4.39,0.82,8.77,1.33,13.15c0.08,0.64,0.15,1.26,0.23,1.89c0.1,0.39,0.14,0.78,0.14,1.18c0.85,7.13,1.79,14.24,2.93,21.3
	c2.54,6.69,5.28,13.32,8.11,19.91c0.2,0.34,0.36,0.7,0.46,1.09c0.25,0.59,0.5,1.16,0.75,1.75c1.75,4.05,3.57,8.06,5.43,12.06
	c2.53,3.61,5.1,7.19,7.73,10.73c0.39,0.51,0.76,1.01,1.14,1.53c0.29,0.29,0.52,0.61,0.71,0.95c4.3,5.75,8.67,11.44,13.19,16.98
	c5.55,4.52,11.23,8.89,16.98,13.19c0.34,0.2,0.66,0.42,0.95,0.71c0.51,0.39,1.01,0.76,1.53,1.14c3.54,2.63,7.12,5.2,10.73,7.73
	c3.99,1.86,8.01,3.68,12.06,5.43c0.59,0.25,1.16,0.5,1.75,0.75c0.39,0.11,0.75,0.27,1.09,0.46c6.6,2.83,13.23,5.57,19.91,8.11
	c7.06,1.14,14.17,2.08,21.3,2.93c0.39,0,0.78,0.04,1.18,0.14c0.64,0.08,1.26,0.15,1.89,0.23c4.38,0.51,8.77,0.94,13.15,1.33
	c4.39-0.38,8.77-0.82,13.15-1.33c0.64-0.08,1.26-0.15,1.89-0.23c0.39-0.1,0.78-0.14,1.18-0.14c7.13-0.85,14.24-1.79,21.3-2.93
	c6.69-2.54,13.32-5.28,19.91-8.11c0.34-0.2,0.7-0.36,1.09-0.46c0.59-0.25,1.16-0.5,1.75-0.75c4.05-1.75,8.06-3.57,12.06-5.43
	c3.61-2.53,7.19-5.1,10.73-7.73c0.51-0.39,1.01-0.76,1.53-1.14c0.29-0.29,0.61-0.52,0.95-0.71c5.75-4.3,11.44-8.67,16.98-13.19
	c4.52-5.55,8.89-11.23,13.19-16.98c0.2-0.34,0.42-0.66,0.71-0.95c0.39-0.51,0.76-1.01,1.14-1.53c2.63-3.54,5.2-7.12,7.73-10.73
	c1.86-3.99,3.68-8.01,5.43-12.06c0.25-0.59,0.5-1.16,0.75-1.75c0.11-0.39,0.27-0.75,0.46-1.09c2.83-6.6,5.57-13.23,8.11-19.91
	c1.14-7.06,2.08-14.17,2.93-21.3c0-0.39,0.04-0.78,0.14-1.18c0.08-0.64,0.15-1.26,0.23-1.89c0.51-4.38,0.94-8.77,1.33-13.15
	c-0.38-4.39-0.82-8.77-1.33-13.15c-0.08-0.64-0.15-1.26-0.23-1.89c-0.1-0.39-0.14-0.78-0.14-1.18c-0.85-7.13-1.79-14.24-2.93-21.3
	c-2.54-6.69-5.28-13.32-8.11-19.91c-0.2-0.34-0.36-0.7-0.46-1.09c-0.25-0.59-0.5-1.16-0.75-1.75c-1.75-4.05-3.57-8.06-5.43-12.06
	c-2.53-3.61-5.1-7.19-7.73-10.73c-0.39-0.51-0.76-1.01-1.14-1.53c-0.29-0.29-0.52-0.61-0.71-0.95c-4.3-5.75-8.67-11.44-13.19-16.98
	c-5.55-4.52-11.23-8.89-16.98-13.19c-0.34-0.2-0.66-0.42-0.95-0.71c-0.51-0.39-1.01-0.76-1.53-1.14c-3.54-2.63-7.12-5.2-10.73-7.73
	c-3.99-1.86-8.01-3.68-12.06-5.43c-0.59-0.25-1.16-0.5-1.75-0.75c-0.39-0.11-0.75-0.27-1.09-0.46c-6.6-2.83-13.23-5.57-19.91-8.11
	c-7.06-1.14-14.17-2.08-21.3-2.93c-0.39,0-0.78-0.04-1.18-0.14c-0.64-0.08-1.26-0.15-1.89-0.23
	C241.56,88.94,237.18,88.5,232.79,88.12z M192.93,84.02c5.83-0.95,11.7-1.77,17.59-2.54c-2.81-6.12-5.63-12.25-8.44-18.36
	c-4.77,0.62-9.51,1.29-14.21,2.02c-4.44,1.72-8.88,3.51-13.32,5.35c0.63,6.7,1.25,13.42,1.88,20.12
	C181.91,88.34,187.4,86.12,192.93,84.02z M272.66,84.02c5.53,2.1,11.02,4.32,16.51,6.6c0.63-6.7,1.25-13.42,1.88-20.12
	c-4.44-1.85-8.88-3.64-13.32-5.35c-4.7-0.74-9.44-1.4-14.21-2.02c-2.81,6.12-5.63,12.25-8.44,18.36
	C260.95,82.25,266.82,83.08,272.66,84.02z M341.7,123.89c3.74,4.58,7.39,9.25,11,13.96c3.89-5.49,7.79-11,11.69-16.49
	c-2.93-3.82-5.87-7.59-8.86-11.3c-3.71-2.99-7.48-5.94-11.3-8.86c-5.49,3.89-11,7.79-16.49,11.69
	C332.45,116.5,337.12,120.15,341.7,123.89z M381.56,192.93c0.95,5.83,1.77,11.7,2.54,17.59c6.12-2.81,12.25-5.63,18.37-8.44
	c-0.62-4.77-1.29-9.51-2.03-14.21c-1.72-4.44-3.51-8.88-5.35-13.32c-6.7,0.63-13.42,1.25-20.12,1.88
	C377.25,181.91,379.47,187.4,381.56,192.93z M381.56,272.66c-2.1,5.53-4.32,11.02-6.59,16.51c6.7,0.63,13.42,1.25,20.12,1.88
	c1.85-4.44,3.64-8.88,5.35-13.32c0.74-4.7,1.4-9.44,2.03-14.21c-6.12-2.81-12.25-5.63-18.37-8.44
	C383.33,260.95,382.51,266.82,381.56,272.66z M341.7,341.7c-4.58,3.74-9.25,7.39-13.96,11c5.49,3.89,11,7.79,16.49,11.69
	c3.82-2.93,7.59-5.87,11.3-8.86c2.99-3.71,5.94-7.48,8.86-11.3c-3.89-5.49-7.79-11-11.69-16.49
	C349.09,332.45,345.44,337.12,341.7,341.7z M272.66,381.56c-5.83,0.95-11.7,1.77-17.59,2.54c2.81,6.12,5.63,12.25,8.44,18.36
	c4.77-0.62,9.51-1.29,14.21-2.02c4.44-1.72,8.88-3.51,13.32-5.35c-0.63-6.7-1.25-13.42-1.88-20.12
	C283.68,377.25,278.18,379.47,272.66,381.56z M192.93,381.56c-5.53-2.1-11.02-4.32-16.51-6.6c-0.63,6.7-1.25,13.42-1.88,20.12
	c4.44,1.85,8.88,3.64,13.32,5.35c4.7,0.74,9.44,1.4,14.21,2.02c2.81-6.12,5.63-12.25,8.44-18.36
	C204.63,383.34,198.76,382.51,192.93,381.56z M123.89,341.7c-3.74-4.58-7.39-9.25-11-13.96c-3.89,5.49-7.79,11-11.69,16.49
	c2.93,3.82,5.87,7.59,8.86,11.3c3.71,2.99,7.48,5.94,11.3,8.86c5.49-3.89,11-7.79,16.49-11.69
	C133.13,349.09,128.46,345.44,123.89,341.7z M84.02,272.66c-0.95-5.83-1.77-11.7-2.54-17.59c-6.12,2.81-12.25,5.63-18.36,8.44
	c0.62,4.77,1.29,9.51,2.02,14.21c1.72,4.44,3.51,8.88,5.35,13.32c6.7-0.63,13.42-1.25,20.12-1.88
	C88.34,283.68,86.12,278.18,84.02,272.66z M84.02,192.93c2.1-5.53,4.32-11.02,6.6-16.51c-6.7-0.63-13.42-1.25-20.12-1.88
	c-1.85,4.44-3.64,8.88-5.35,13.32c-0.74,4.7-1.4,9.44-2.02,14.21c6.12,2.81,12.25,5.63,18.36,8.44
	C82.25,204.63,83.08,198.76,84.02,192.93z M123.89,123.89c4.58-3.74,9.25-7.39,13.96-11c-5.49-3.89-11-7.79-16.49-11.69
	c-3.82,2.93-7.59,5.87-11.3,8.86c-2.99,3.71-5.94,7.48-8.86,11.3c3.89,5.49,7.79,11,11.69,16.49
	C116.5,133.13,120.15,128.46,123.89,123.89z M186.3,59.29c4.36-0.69,8.74-1.32,13.16-1.9c-3.03-6.61-6.08-13.21-9.11-19.81
	c-3.19,0.42-6.36,0.86-9.51,1.32c-2.97,1.18-5.93,2.39-8.9,3.62c0.68,7.24,1.34,14.48,2.02,21.71
	C178.07,62.52,182.19,60.87,186.3,59.29z M279.28,59.29c4.12,1.58,8.23,3.23,12.34,4.93c0.68-7.24,1.34-14.48,2.02-21.71
	c-2.97-1.23-5.93-2.44-8.9-3.62c-3.16-0.46-6.33-0.9-9.51-1.32c-3.03,6.61-6.08,13.21-9.11,19.81
	C270.54,57.98,274.93,58.6,279.28,59.29z M359.8,105.78c2.77,3.43,5.51,6.91,8.23,10.44c4.21-5.93,8.4-11.87,12.61-17.79
	c-1.96-2.55-3.92-5.08-5.9-7.58c-2.5-1.98-5.03-3.94-7.58-5.9c-5.93,4.21-11.87,8.4-17.79,12.61
	C352.89,100.27,356.38,103.01,359.8,105.78z M406.29,186.3c0.69,4.36,1.32,8.74,1.9,13.16c6.61-3.03,13.21-6.08,19.81-9.11
	c-0.42-3.19-0.86-6.36-1.32-9.51c-1.18-2.97-2.39-5.93-3.62-8.9c-7.24,0.68-14.48,1.34-21.71,2.02
	C403.06,178.07,404.71,182.19,406.29,186.3z M406.29,279.28c-1.58,4.12-3.23,8.23-4.93,12.34c7.24,0.68,14.48,1.34,21.71,2.02
	c1.23-2.97,2.44-5.93,3.62-8.9c0.46-3.16,0.9-6.33,1.32-9.51c-6.61-3.03-13.21-6.08-19.81-9.11
	C407.61,270.54,406.98,274.93,406.29,279.28z M359.8,359.81c-3.43,2.77-6.91,5.51-10.44,8.23c5.93,4.21,11.87,8.4,17.79,12.61
	c2.55-1.96,5.08-3.92,7.58-5.9c1.98-2.5,3.94-5.03,5.9-7.58c-4.21-5.93-8.4-11.87-12.61-17.79
	C365.32,352.89,362.58,356.38,359.8,359.81z M279.28,406.29c-4.36,0.69-8.74,1.32-13.16,1.9c3.03,6.61,6.08,13.21,9.11,19.81
	c3.19-0.42,6.36-0.86,9.51-1.32c2.97-1.18,5.93-2.39,8.9-3.62c-0.68-7.24-1.34-14.48-2.02-21.71
	C287.51,403.06,283.4,404.71,279.28,406.29z M186.3,406.29c-4.12-1.58-8.23-3.23-12.34-4.93c-0.68,7.24-1.34,14.48-2.02,21.71
	c2.97,1.23,5.93,2.44,8.9,3.62c3.16,0.46,6.33,0.9,9.51,1.32c3.03-6.61,6.08-13.21,9.11-19.81
	C195.05,407.61,190.66,406.98,186.3,406.29z M105.78,359.81c-2.77-3.43-5.51-6.91-8.23-10.44c-4.21,5.93-8.4,11.87-12.61,17.79
	c1.96,2.55,3.92,5.08,5.9,7.58c2.5,1.98,5.03,3.94,7.58,5.9c5.93-4.21,11.87-8.4,17.79-12.61
	C112.69,365.32,109.21,362.58,105.78,359.81z M59.29,279.28c-0.69-4.36-1.32-8.74-1.9-13.16c-6.61,3.03-13.21,6.08-19.81,9.11
	c0.42,3.19,0.86,6.36,1.32,9.51c1.18,2.97,2.39,5.93,3.62,8.9c7.24-0.68,14.48-1.34,21.71-2.02
	C62.52,287.51,60.87,283.4,59.29,279.28z M59.29,186.3c1.58-4.12,3.23-8.23,4.93-12.34c-7.24-0.68-14.48-1.34-21.71-2.02
	c-1.23,2.97-2.44,5.93-3.62,8.9c-0.46,3.16-0.9,6.33-1.32,9.51c6.61,3.03,13.21,6.08,19.81,9.11
	C57.98,195.05,58.6,190.66,59.29,186.3z M105.78,105.78c3.43-2.77,6.91-5.51,10.44-8.23c-5.93-4.21-11.87-8.4-17.79-12.61
	c-2.55,1.96-5.08,3.92-7.58,5.9c-1.98,2.5-3.94,5.03-5.9,7.58c4.21,5.93,8.4,11.87,12.61,17.79
	C100.27,112.69,103.01,109.21,105.78,105.78z M179.27,33.04c2.81-0.42,5.63-0.81,8.46-1.19c-2.82-6.13-5.64-12.26-8.45-18.4
	c-1.69,0.21-3.39,0.43-5.08,0.65c-1.58,0.65-3.15,1.31-4.72,1.97c0.63,6.72,1.25,13.44,1.88,20.16
	C173.99,35.15,176.63,34.08,179.27,33.04z M286.32,33.04c2.64,1.04,5.28,2.11,7.92,3.2c0.63-6.72,1.25-13.44,1.88-20.16
	c-1.57-0.66-3.15-1.32-4.72-1.97c-1.69-0.22-3.38-0.44-5.08-0.65c-2.82,6.13-5.64,12.26-8.45,18.4
	C280.69,32.23,283.51,32.62,286.32,33.04z M379.03,86.56c1.76,2.22,3.52,4.47,5.26,6.73c3.9-5.51,7.8-11.01,11.7-16.52
	c-1.03-1.36-2.06-2.72-3.1-4.07c-1.35-1.04-2.71-2.07-4.07-3.1c-5.51,3.9-11.01,7.8-16.52,11.7
	C374.56,83.05,376.8,84.8,379.03,86.56z M432.55,179.27c0.42,2.81,0.81,5.63,1.19,8.46c6.13-2.82,12.26-5.64,18.4-8.45
	c-0.21-1.69-0.43-3.39-0.65-5.08c-0.65-1.58-1.31-3.15-1.97-4.72c-6.72,0.63-13.44,1.25-20.16,1.88
	C430.44,173.99,431.51,176.63,432.55,179.27z M432.55,286.32c-1.04,2.64-2.11,5.28-3.2,7.92c6.72,0.63,13.44,1.25,20.16,1.88
	c0.66-1.57,1.32-3.15,1.97-4.72c0.22-1.69,0.44-3.38,0.65-5.08c-6.13-2.82-12.26-5.64-18.4-8.45
	C433.36,280.69,432.97,283.51,432.55,286.32z M379.03,379.03c-2.22,1.76-4.47,3.52-6.73,5.26c5.51,3.9,11.01,7.8,16.52,11.7
	c1.36-1.03,2.72-2.06,4.07-3.1c1.04-1.35,2.07-2.71,3.1-4.07c-3.9-5.51-7.8-11.01-11.7-16.52
	C382.54,374.56,380.79,376.8,379.03,379.03z M286.32,432.55c-2.81,0.42-5.63,0.81-8.46,1.19c2.82,6.13,5.64,12.26,8.45,18.4
	c1.69-0.21,3.39-0.43,5.08-0.65c1.58-0.65,3.15-1.31,4.72-1.97c-0.63-6.72-1.25-13.44-1.88-20.16
	C291.6,430.44,288.96,431.51,286.32,432.55z M179.27,432.55c-2.64-1.04-5.28-2.11-7.92-3.2c-0.63,6.72-1.25,13.44-1.88,20.16
	c1.57,0.66,3.15,1.32,4.72,1.97c1.69,0.22,3.38,0.44,5.08,0.65c2.82-6.13,5.64-12.26,8.45-18.4
	C184.9,433.36,182.08,432.97,179.27,432.55z M86.56,379.03c-1.76-2.22-3.52-4.47-5.26-6.73c-3.9,5.51-7.8,11.01-11.7,16.52
	c1.03,1.36,2.06,2.72,3.1,4.07c1.35,1.04,2.71,2.07,4.07,3.1c5.51-3.9,11.01-7.8,16.52-11.7C91.03,382.54,88.78,380.79,86.56,379.03
	z M33.04,286.32c-0.42-2.81-0.81-5.63-1.19-8.46c-6.13,2.82-12.26,5.64-18.4,8.45c0.21,1.69,0.43,3.39,0.65,5.08
	c0.65,1.58,1.31,3.15,1.97,4.72c6.72-0.63,13.44-1.25,20.16-1.88C35.15,291.6,34.08,288.96,33.04,286.32z M33.04,179.27
	c1.04-2.64,2.11-5.28,3.2-7.92c-6.72-0.63-13.44-1.25-20.16-1.88c-0.66,1.57-1.32,3.15-1.97,4.72c-0.22,1.69-0.44,3.38-0.65,5.08
	c6.13,2.82,12.26,5.64,18.4,8.45C32.23,184.9,32.62,182.08,33.04,179.27z M86.56,86.56c2.22-1.76,4.47-3.52,6.73-5.26
	c-5.51-3.9-11.01-7.8-16.52-11.7c-1.36,1.03-2.72,2.06-4.07,3.1c-1.04,1.35-2.07,2.71-3.1,4.07c3.9,5.51,7.8,11.01,11.7,16.52
	C83.05,91.03,84.8,88.79,86.56,86.56z M232.79,45.2c-4.38-11.81-8.75-23.63-13.13-35.45c-10.31,0.65-20.63,1.47-30.94,2.59
	c10.42,22.67,20.83,45.34,31.26,68c4.26-0.46,8.54-0.87,12.81-1.23c4.28,0.36,8.55,0.77,12.81,1.23
	c10.42-22.67,20.83-45.34,31.26-68c-10.31-1.12-20.63-1.94-30.94-2.59C241.54,21.57,237.17,33.39,232.79,45.2z M326.59,70.33
	c2.12-12.42,4.24-24.84,6.36-37.26c-9.26-4.59-18.6-9.04-28.09-13.22c-2.31,24.84-4.63,49.68-6.93,74.52
	c3.93,1.73,7.83,3.51,11.71,5.34c3.52,2.45,7.02,4.94,10.48,7.47c20.36-14.42,40.71-28.85,61.07-43.27
	c-8.37-6.13-16.89-12-25.5-17.72C345.98,54.24,336.29,62.29,326.59,70.33z M395.25,139c8.04-9.7,16.09-19.39,24.13-29.09
	c-5.72-8.61-11.59-17.13-17.72-25.5c-14.42,20.36-28.85,40.71-43.27,61.07c2.53,3.46,5.02,6.96,7.47,10.48
	c1.83,3.88,3.61,7.79,5.34,11.71c24.84-2.31,49.68-4.63,74.52-6.93c-4.18-9.49-8.63-18.84-13.22-28.09
	C420.09,134.76,407.67,136.88,395.25,139z M420.39,232.79c11.81-4.38,23.63-8.75,35.45-13.13c-0.65-10.31-1.47-20.63-2.59-30.94
	c-22.66,10.42-45.34,20.83-68,31.26c0.47,4.26,0.87,8.54,1.23,12.81c-0.36,4.28-0.77,8.55-1.23,12.81
	c22.67,10.42,45.34,20.83,68,31.26c1.12-10.31,1.94-20.63,2.59-30.94C444.02,241.54,432.2,237.17,420.39,232.79z M395.25,326.59
	c12.42,2.12,24.84,4.24,37.26,6.36c4.59-9.26,9.04-18.6,13.22-28.09c-24.84-2.31-49.68-4.63-74.52-6.93
	c-1.73,3.93-3.51,7.83-5.34,11.71c-2.45,3.52-4.94,7.02-7.47,10.48c14.42,20.36,28.85,40.71,43.27,61.07
	c6.13-8.37,12-16.89,17.72-25.5C411.34,345.98,403.3,336.29,395.25,326.59z M326.59,395.25c9.7,8.04,19.39,16.09,29.09,24.13
	c8.61-5.72,17.13-11.59,25.5-17.72c-20.36-14.42-40.71-28.85-61.07-43.27c-3.46,2.53-6.96,5.02-10.48,7.47
	c-3.88,1.82-7.79,3.61-11.71,5.34c2.31,24.84,4.63,49.68,6.93,74.52c9.49-4.18,18.84-8.63,28.09-13.22
	C330.83,420.09,328.71,407.67,326.59,395.25z M232.79,420.39c4.38,11.81,8.75,23.63,13.13,35.45c10.31-0.65,20.63-1.47,30.94-2.59
	c-10.42-22.67-20.83-45.34-31.26-68c-4.26,0.46-8.54,0.87-12.81,1.23c-4.28-0.36-8.55-0.77-12.81-1.23
	c-10.42,22.67-20.83,45.34-31.26,68c10.31,1.12,20.63,1.94,30.94,2.59C224.04,444.02,228.42,432.2,232.79,420.39z M139,395.25
	c-2.12,12.42-4.24,24.84-6.36,37.26c9.26,4.59,18.6,9.04,28.09,13.22c2.31-24.84,4.63-49.68,6.93-74.52
	c-3.93-1.73-7.83-3.51-11.71-5.34c-3.52-2.45-7.02-4.94-10.48-7.47c-20.36,14.42-40.71,28.85-61.07,43.27
	c8.37,6.13,16.89,12,25.5,17.72C119.6,411.34,129.3,403.3,139,395.25z M70.33,326.59c-8.04,9.7-16.09,19.39-24.13,29.09
	c5.72,8.61,11.59,17.13,17.72,25.5c14.42-20.36,28.85-40.71,43.27-61.07c-2.53-3.46-5.02-6.96-7.47-10.48
	c-1.82-3.88-3.61-7.79-5.34-11.71c-24.84,2.31-49.68,4.63-74.52,6.93c4.18,9.49,8.63,18.84,13.22,28.09
	C45.49,330.83,57.91,328.71,70.33,326.59z M45.2,232.79c-11.81,4.38-23.63,8.75-35.45,13.13c0.65,10.31,1.47,20.63,2.59,30.94
	c22.67-10.42,45.34-20.83,68-31.26c-0.46-4.26-0.87-8.54-1.23-12.81c0.36-4.28,0.77-8.55,1.23-12.81
	c-22.67-10.42-45.34-20.83-68-31.26c-1.12,10.31-1.94,20.63-2.59,30.94C21.57,224.04,33.39,228.42,45.2,232.79z M70.33,139
	c-12.42-2.12-24.84-4.24-37.26-6.36c-4.59,9.26-9.04,18.6-13.22,28.09c24.84,2.31,49.68,4.63,74.52,6.93
	c1.73-3.93,3.52-7.83,5.34-11.71c2.45-3.52,4.94-7.02,7.47-10.48c-14.42-20.36-28.85-40.71-43.27-61.07
	c-6.13,8.37-12,16.89-17.72,25.5C54.24,119.6,62.29,129.3,70.33,139z M139,70.33c-9.7-8.04-19.39-16.09-29.09-24.13
	c-8.61,5.72-17.13,11.59-25.5,17.72c20.36,14.42,40.71,28.85,61.07,43.27c3.46-2.53,6.96-5.02,10.48-7.47
	c3.88-1.82,7.79-3.61,11.71-5.34c-2.31-24.84-4.63-49.68-6.93-74.52c-9.49,4.18-18.84,8.63-28.09,13.22
	C134.76,45.49,136.88,57.91,139,70.33z M232.79,8.96c-1.23,0.07-2.45,0.14-3.68,0.22c1.22,3.32,2.45,6.64,3.68,9.95
	c1.23-3.32,2.46-6.63,3.68-9.95C235.25,9.1,234.02,9.03,232.79,8.96z M344.71,38.94c-1.1-0.55-2.2-1.1-3.3-1.65
	c-0.6,3.49-1.2,6.97-1.79,10.46c2.72-2.26,5.44-4.51,8.16-6.78C346.77,40.3,345.74,39.62,344.71,38.94z M426.64,120.87
	c-0.68-1.03-1.35-2.05-2.03-3.08c-2.26,2.72-4.52,5.44-6.78,8.16c3.49-0.59,6.97-1.19,10.46-1.79
	C427.74,123.07,427.19,121.97,426.64,120.87z M456.63,232.79c-0.07-1.23-0.14-2.45-0.22-3.68c-3.32,1.22-6.64,2.45-9.95,3.68
	c3.32,1.23,6.63,2.46,9.95,3.68C456.49,235.25,456.56,234.02,456.63,232.79z M426.64,344.71c0.55-1.1,1.1-2.2,1.65-3.3
	c-3.49-0.6-6.97-1.2-10.46-1.79c2.26,2.72,4.52,5.44,6.78,8.16C425.29,346.77,425.97,345.74,426.64,344.71z M344.71,426.64
	c1.03-0.68,2.05-1.35,3.08-2.03c-2.72-2.26-5.44-4.52-8.16-6.78c0.59,3.49,1.19,6.97,1.79,10.46
	C342.51,427.74,343.61,427.19,344.71,426.64z M232.79,456.63c1.23-0.07,2.45-0.14,3.68-0.22c-1.22-3.32-2.45-6.64-3.68-9.95
	c-1.23,3.32-2.46,6.63-3.68,9.95C230.34,456.49,231.57,456.56,232.79,456.63z M120.87,426.64c1.1,0.55,2.2,1.1,3.3,1.65
	c0.6-3.49,1.2-6.97,1.79-10.46c-2.72,2.26-5.44,4.51-8.16,6.78C118.82,425.29,119.85,425.97,120.87,426.64z M38.94,344.71
	c0.68,1.03,1.35,2.05,2.03,3.08c2.26-2.72,4.52-5.44,6.78-8.16c-3.49,0.59-6.97,1.19-10.46,1.79
	C37.84,342.51,38.39,343.61,38.94,344.71z M8.95,232.79c0.07,1.23,0.14,2.45,0.22,3.68c3.32-1.22,6.64-2.45,9.95-3.68
	c-3.32-1.23-6.63-2.46-9.95-3.68C9.1,230.34,9.03,231.57,8.95,232.79z M38.94,120.87c-0.55,1.1-1.1,2.2-1.65,3.3
	c3.49,0.6,6.97,1.2,10.46,1.79c-2.26-2.72-4.51-5.44-6.78-8.16C40.3,118.82,39.62,119.85,38.94,120.87z M120.87,38.94
	c-1.03,0.68-2.05,1.35-3.08,2.03c2.72,2.26,5.44,4.52,8.16,6.78c-0.59-3.49-1.19-6.97-1.79-10.46
	C123.07,37.84,121.97,38.39,120.87,38.94z"/>
<path class="st2" d="M195.27,92.74c7.06-1.14,14.17-2.08,21.3-2.93c0.39,0,0.78-0.04,1.18-0.14c0.64-0.08,1.26-0.15,1.89-0.23
	c4.38-0.51,8.77-0.94,13.15-1.33c4.39,0.38,8.77,0.82,13.15,1.33c0.64,0.08,1.26,0.15,1.89,0.23c0.39,0.1,0.78,0.14,1.18,0.14
	c7.13,0.85,14.24,1.79,21.3,2.93c6.69,2.54,13.32,5.28,19.91,8.11c0.34,0.2,0.7,0.36,1.09,0.46c0.59,0.25,1.16,0.5,1.75,0.75
	c4.05,1.75,8.06,3.57,12.06,5.43c3.61,2.53,7.19,5.1,10.73,7.73c0.51,0.39,1.01,0.76,1.53,1.14c0.29,0.29,0.61,0.52,0.95,0.71
	c5.75,4.3,11.44,8.67,16.98,13.19c4.52,5.55,8.89,11.23,13.19,16.98c0.2,0.34,0.42,0.66,0.71,0.95c0.39,0.51,0.76,1.01,1.14,1.53
	c2.63,3.54,5.2,7.12,7.73,10.73c1.86,3.99,3.68,8.01,5.43,12.06c0.25,0.59,0.5,1.16,0.75,1.75c0.11,0.39,0.27,0.75,0.46,1.09
	c2.83,6.6,5.57,13.23,8.11,19.91c1.14,7.06,2.08,14.17,2.93,21.3c0,0.39,0.04,0.78,0.14,1.18c0.08,0.64,0.15,1.26,0.23,1.89
	c0.51,4.38,0.94,8.77,1.33,13.15c-0.38,4.39-0.82,8.77-1.33,13.15c-0.08,0.64-0.15,1.26-0.23,1.89c-0.1,0.39-0.14,0.78-0.14,1.18
	c-0.85,7.13-1.79,14.24-2.93,21.3c-2.54,6.69-5.28,13.32-8.11,19.91c-0.2,0.34-0.36,0.7-0.46,1.09c-0.25,0.59-0.5,1.16-0.75,1.75
	c-1.75,4.05-3.57,8.06-5.43,12.06c-2.53,3.61-5.1,7.19-7.73,10.73c-0.39,0.51-0.76,1.01-1.14,1.53c-0.29,0.29-0.52,0.61-0.71,0.95
	c-4.3,5.75-8.67,11.44-13.19,16.98c-5.55,4.52-11.23,8.89-16.98,13.19c-0.34,0.2-0.66,0.42-0.95,0.71
	c-0.51,0.39-1.01,0.76-1.53,1.14c-3.54,2.63-7.12,5.2-10.73,7.73c-3.99,1.86-8.01,3.68-12.06,5.43c-0.59,0.25-1.16,0.5-1.75,0.75
	c-0.39,0.11-0.75,0.27-1.09,0.46c-6.6,2.83-13.23,5.57-19.91,8.11c-7.06,1.14-14.17,2.08-21.3,2.93c-0.39,0-0.78,0.04-1.18,0.14
	c-0.64,0.08-1.26,0.15-1.89,0.23c-4.38,0.51-8.77,0.94-13.15,1.33c-4.39-0.38-8.77-0.82-13.15-1.33c-0.64-0.08-1.26-0.15-1.89-0.23
	c-0.39-0.1-0.78-0.14-1.18-0.14c-7.13-0.85-14.24-1.79-21.3-2.93c-6.69-2.54-13.32-5.28-19.91-8.11c-0.34-0.2-0.7-0.36-1.09-0.46
	c-0.59-0.25-1.16-0.5-1.75-0.75c-4.05-1.75-8.06-3.57-12.06-5.43c-3.61-2.53-7.19-5.1-10.73-7.73c-0.51-0.39-1.01-0.76-1.53-1.14
	c-0.29-0.29-0.61-0.52-0.95-0.71c-5.75-4.3-11.44-8.67-16.98-13.19c-4.52-5.55-8.89-11.23-13.19-16.98
	c-0.2-0.34-0.42-0.66-0.71-0.95c-0.39-0.51-0.76-1.01-1.14-1.53c-2.63-3.54-5.2-7.12-7.73-10.73c-1.86-3.99-3.68-8.01-5.43-12.06
	c-0.25-0.59-0.5-1.16-0.75-1.75c-0.11-0.39-0.27-0.75-0.46-1.09c-2.83-6.6-5.57-13.23-8.11-19.91c-1.14-7.06-2.08-14.17-2.93-21.3
	c0-0.39-0.04-0.78-0.14-1.18c-0.08-0.64-0.15-1.26-0.23-1.89c-0.51-4.38-0.94-8.77-1.33-13.15c0.38-4.39,0.82-8.77,1.33-13.15
	c0.08-0.64,0.15-1.26,0.23-1.89c0.1-0.39,0.14-0.78,0.14-1.18c0.85-7.13,1.79-14.24,2.93-21.3c2.54-6.69,5.28-13.32,8.11-19.91
	c0.2-0.34,0.36-0.7,0.46-1.09c0.25-0.59,0.5-1.16,0.75-1.75c1.75-4.05,3.57-8.06,5.43-12.06c2.53-3.61,5.1-7.19,7.73-10.73
	c0.39-0.51,0.76-1.01,1.14-1.53c0.29-0.29,0.52-0.61,0.71-0.95c4.3-5.75,8.67-11.44,13.19-16.98c5.55-4.52,11.23-8.89,16.98-13.19
	c0.34-0.2,0.66-0.42,0.95-0.71c0.51-0.39,1.01-0.76,1.53-1.14c3.54-2.63,7.12-5.2,10.73-7.73c3.99-1.86,8.01-3.68,12.06-5.43
	c0.59-0.25,1.16-0.5,1.75-0.75c0.39-0.11,0.75-0.27,1.09-0.46C181.95,98.03,188.58,95.29,195.27,92.74z M232.79,138.35
	c-8.24,0.77-16.39,1.86-24.41,3.33c-7.68,2.74-15.29,5.87-22.81,9.32c-6.75,4.78-13.26,9.81-19.48,15.09
	c-5.28,6.22-10.31,12.73-15.09,19.48c-3.45,7.52-6.58,15.12-9.32,22.81c-1.47,8.03-2.56,16.18-3.33,24.41
	c0.77,8.24,1.86,16.39,3.33,24.41c2.74,7.68,5.87,15.29,9.32,22.81c4.78,6.75,9.81,13.26,15.09,19.48
	c6.22,5.28,12.73,10.31,19.48,15.09c7.52,3.45,15.12,6.58,22.81,9.32c8.03,1.47,16.18,2.56,24.41,3.33
	c8.24-0.77,16.39-1.86,24.41-3.33c7.68-2.74,15.29-5.87,22.81-9.32c6.75-4.78,13.26-9.81,19.48-15.09
	c5.28-6.22,10.31-12.73,15.09-19.48c3.45-7.52,6.58-15.12,9.32-22.81c1.47-8.03,2.56-16.18,3.33-24.41
	c-0.77-8.24-1.86-16.39-3.33-24.41c-2.74-7.68-5.87-15.29-9.32-22.81c-4.78-6.75-9.81-13.26-15.09-19.48
	c-6.22-5.28-12.73-10.31-19.48-15.09c-7.52-3.45-15.12-6.58-22.81-9.32C249.18,140.21,241.03,139.12,232.79,138.35z M222.39,124.81
	c0.4-0.19,0.71-0.45,0.94-0.73c4.54-3.57,6.33-9.74,3.29-15c-3.13-5.42-10.33-7.35-15.75-4.22c-5.4,3.12-7.33,10.32-4.2,15.74
	c3.04,5.26,9.27,6.8,14.64,4.65C221.66,125.19,222.04,125.06,222.39,124.81z M169.8,144.48c0.25-0.37,0.39-0.75,0.45-1.1
	c2.15-5.36,0.61-11.6-4.65-14.64c-5.42-3.13-12.62-1.2-15.75,4.22c-3.12,5.4-1.19,12.6,4.23,15.73c5.26,3.04,11.43,1.25,15-3.29
	C169.35,145.17,169.61,144.87,169.8,144.48z M134.08,187.81c0.04-0.45-0.04-0.84-0.16-1.18c-0.82-5.72-5.27-10.35-11.35-10.35
	c-6.25,0-11.53,5.27-11.53,11.53c0,6.24,5.27,11.51,11.53,11.51c6.08,0,10.53-4.63,11.35-10.35
	C134.04,188.63,134.12,188.24,134.08,187.81z M124.81,243.19c-0.19-0.4-0.45-0.71-0.73-0.94c-3.57-4.54-9.74-6.32-15-3.29
	c-5.42,3.13-7.35,10.33-4.22,15.75c3.12,5.4,10.32,7.33,15.74,4.2c5.26-3.04,6.8-9.27,4.65-14.64
	C125.19,243.92,125.06,243.55,124.81,243.19z M144.48,295.79c-0.37-0.25-0.74-0.39-1.1-0.45c-5.36-2.15-11.6-0.61-14.64,4.65
	c-3.13,5.42-1.2,12.62,4.22,15.75c5.4,3.12,12.6,1.19,15.73-4.23c3.04-5.26,1.25-11.43-3.29-15
	C145.17,296.23,144.87,295.97,144.48,295.79z M187.81,331.51c-0.45-0.04-0.84,0.04-1.18,0.16c-5.72,0.82-10.35,5.27-10.35,11.35
	c0,6.26,5.27,11.53,11.53,11.53c6.24,0,11.51-5.27,11.51-11.53c0-6.08-4.63-10.53-10.35-11.35
	C188.63,331.54,188.24,331.47,187.81,331.51z M243.19,340.77c-0.4,0.19-0.71,0.45-0.94,0.73c-4.54,3.57-6.32,9.74-3.29,15
	c3.13,5.42,10.33,7.35,15.75,4.22c5.4-3.12,7.33-10.32,4.2-15.74c-3.04-5.26-9.27-6.8-14.63-4.65
	C243.92,340.39,243.55,340.53,243.19,340.77z M295.79,321.11c-0.25,0.37-0.39,0.75-0.45,1.1c-2.15,5.36-0.61,11.6,4.65,14.64
	c5.42,3.13,12.62,1.2,15.75-4.22c3.12-5.4,1.19-12.6-4.23-15.73c-5.26-3.04-11.43-1.25-15,3.29
	C296.23,320.41,295.97,320.72,295.79,321.11z M331.51,277.78c-0.04,0.45,0.04,0.84,0.16,1.18c0.82,5.72,5.27,10.35,11.35,10.35
	c6.25,0,11.53-5.27,11.53-11.53c0-6.24-5.27-11.51-11.53-11.51c-6.08,0-10.53,4.63-11.35,10.35
	C331.54,276.96,331.47,277.35,331.51,277.78z M340.77,222.39c0.19,0.4,0.45,0.71,0.73,0.94c3.57,4.54,9.74,6.32,15,3.29
	c5.42-3.13,7.35-10.33,4.22-15.75c-3.12-5.4-10.32-7.33-15.74-4.2c-5.26,3.04-6.8,9.27-4.65,14.64
	C340.39,221.66,340.53,222.04,340.77,222.39z M321.11,169.8c0.37,0.25,0.75,0.39,1.1,0.45c5.36,2.15,11.6,0.61,14.64-4.65
	c3.13-5.42,1.2-12.62-4.22-15.75c-5.4-3.12-12.6-1.19-15.73,4.23c-3.04,5.26-1.25,11.43,3.29,15
	C320.41,169.35,320.72,169.61,321.11,169.8z M277.78,134.08c0.45,0.04,0.84-0.04,1.18-0.16c5.72-0.82,10.35-5.27,10.35-11.35
	c0-6.26-5.27-11.53-11.53-11.53c-6.24,0-11.51,5.27-11.51,11.53c0,6.08,4.63,10.53,10.35,11.35
	C276.96,134.04,277.35,134.12,277.78,134.08z M244.28,125.25c5.36,2.15,11.6,0.61,14.63-4.65c3.13-5.42,1.2-12.62-4.2-15.74
	c-5.42-3.13-12.62-1.2-15.75,4.22c-3.04,5.26-1.25,11.43,3.29,15c0.23,0.28,0.54,0.54,0.94,0.73
	C243.55,125.06,243.92,125.19,244.28,125.25z M188.97,133.92c5.72-0.82,10.35-5.27,10.35-11.35c0-6.25-5.27-11.53-11.51-11.53
	c-6.25,0-11.53,5.27-11.53,11.53c0,6.08,4.63,10.53,10.35,11.35c0.34,0.12,0.73,0.2,1.18,0.16
	C188.24,134.12,188.63,134.04,188.97,133.92z M145.4,169.08c4.54-3.57,6.32-9.74,3.29-15c-3.13-5.42-10.33-7.35-15.73-4.23
	c-5.42,3.13-7.35,10.33-4.22,15.75c3.04,5.26,9.27,6.8,14.64,4.65c0.36-0.06,0.73-0.2,1.1-0.45
	C144.87,169.61,145.17,169.35,145.4,169.08z M125.25,221.31c2.15-5.36,0.61-11.6-4.65-14.64c-5.42-3.13-12.62-1.2-15.74,4.2
	c-3.13,5.42-1.2,12.62,4.22,15.75c5.26,3.04,11.43,1.25,15-3.29c0.28-0.23,0.54-0.54,0.73-0.94
	C125.06,222.04,125.19,221.66,125.25,221.31z M133.92,276.62c-0.82-5.72-5.27-10.35-11.35-10.35c-6.25,0-11.53,5.27-11.53,11.51
	c0,6.26,5.27,11.53,11.53,11.53c6.08,0,10.53-4.63,11.35-10.35c0.12-0.34,0.2-0.73,0.16-1.18
	C134.12,277.35,134.04,276.96,133.92,276.62z M169.08,320.18c-3.57-4.54-9.74-6.32-15-3.29c-5.42,3.13-7.35,10.33-4.23,15.73
	c3.13,5.42,10.33,7.35,15.75,4.22c5.26-3.04,6.8-9.27,4.65-14.64c-0.06-0.36-0.2-0.73-0.45-1.1
	C169.61,320.72,169.35,320.41,169.08,320.18z M221.31,340.33c-5.36-2.15-11.6-0.61-14.64,4.65c-3.13,5.42-1.2,12.62,4.2,15.74
	c5.42,3.13,12.62,1.2,15.75-4.22c3.04-5.26,1.25-11.43-3.29-15c-0.23-0.28-0.54-0.54-0.94-0.73
	C222.04,340.53,221.66,340.39,221.31,340.33z M276.62,331.67c-5.72,0.82-10.35,5.27-10.35,11.35c0,6.25,5.27,11.53,11.51,11.53
	c6.25,0,11.53-5.27,11.53-11.53c0-6.08-4.63-10.53-10.35-11.35c-0.34-0.12-0.73-0.2-1.18-0.16
	C277.35,331.47,276.96,331.54,276.62,331.67z M320.18,296.51c-4.54,3.57-6.33,9.74-3.29,15c3.13,5.42,10.33,7.35,15.73,4.23
	c5.42-3.13,7.35-10.33,4.22-15.75c-3.04-5.26-9.27-6.8-14.64-4.65c-0.36,0.06-0.73,0.2-1.1,0.45
	C320.72,295.97,320.41,296.23,320.18,296.51z M340.33,244.28c-2.15,5.36-0.61,11.6,4.65,14.64c5.42,3.13,12.62,1.2,15.74-4.2
	c3.13-5.42,1.2-12.62-4.22-15.75c-5.26-3.04-11.43-1.25-15,3.29c-0.28,0.23-0.54,0.54-0.73,0.94
	C340.53,243.55,340.39,243.92,340.33,244.28z M331.67,188.97c0.82,5.72,5.27,10.35,11.35,10.35c6.25,0,11.53-5.27,11.53-11.51
	c0-6.26-5.27-11.53-11.53-11.53c-6.08,0-10.53,4.63-11.35,10.35c-0.13,0.34-0.2,0.73-0.16,1.18
	C331.47,188.24,331.54,188.63,331.67,188.97z M296.51,145.4c3.57,4.54,9.74,6.32,15,3.29c5.42-3.13,7.35-10.33,4.23-15.73
	c-3.13-5.42-10.33-7.35-15.75-4.22c-5.26,3.04-6.8,9.27-4.65,14.64c0.06,0.36,0.2,0.73,0.45,1.1
	C295.97,144.87,296.23,145.17,296.51,145.4z"/>
<path class="st0" d="M208.38,141.68c8.03-1.47,16.18-2.56,24.41-3.33c8.24,0.77,16.39,1.86,24.41,3.33
	c7.68,2.74,15.29,5.87,22.81,9.32c6.75,4.78,13.26,9.81,19.48,15.09c5.28,6.22,10.31,12.73,15.09,19.48
	c3.45,7.52,6.58,15.12,9.32,22.81c1.47,8.03,2.56,16.18,3.33,24.41c-0.77,8.24-1.86,16.39-3.33,24.41
	c-2.74,7.68-5.87,15.29-9.32,22.81c-4.78,6.75-9.81,13.26-15.09,19.48c-6.22,5.28-12.73,10.31-19.48,15.09
	c-7.52,3.45-15.12,6.58-22.81,9.32c-8.03,1.47-16.18,2.56-24.41,3.33c-8.24-0.77-16.39-1.86-24.41-3.33
	c-7.68-2.74-15.29-5.87-22.81-9.32c-6.75-4.78-13.26-9.81-19.48-15.09c-5.28-6.22-10.31-12.73-15.09-19.48
	c-3.45-7.52-6.58-15.12-9.32-22.81c-1.47-8.03-2.56-16.18-3.33-24.41c0.77-8.24,1.86-16.39,3.33-24.41
	c2.74-7.68,5.87-15.29,9.32-22.81c4.78-6.75,9.81-13.26,15.09-19.48c6.22-5.28,12.73-10.31,19.48-15.09
	C193.09,147.55,200.69,144.42,208.38,141.68z M232.79,209.41c-1.5,2.23-2.99,4.46-4.47,6.71c-2.4-1.21-4.81-2.4-7.22-3.58
	c-0.19,2.68-0.36,5.36-0.51,8.05c-2.68,0.15-5.36,0.32-8.05,0.51c1.18,2.42,2.37,4.82,3.58,7.22c-2.25,1.47-4.48,2.96-6.71,4.47
	c2.23,1.5,4.46,2.99,6.71,4.47c-1.21,2.4-2.4,4.81-3.58,7.22c2.68,0.19,5.36,0.36,8.05,0.51c0.15,2.68,0.32,5.37,0.51,8.05
	c2.42-1.18,4.83-2.37,7.22-3.58c1.47,2.25,2.96,4.48,4.47,6.71c1.5-2.23,2.99-4.46,4.47-6.71c2.4,1.21,4.81,2.4,7.22,3.58
	c0.19-2.68,0.36-5.36,0.51-8.05c2.68-0.15,5.37-0.32,8.05-0.51c-1.18-2.42-2.37-4.82-3.58-7.22c2.25-1.47,4.48-2.96,6.71-4.47
	c-2.23-1.5-4.46-2.99-6.71-4.47c1.21-2.4,2.4-4.81,3.58-7.22c-2.68-0.19-5.36-0.36-8.05-0.51c-0.15-2.68-0.32-5.37-0.51-8.05
	c-2.42,1.18-4.82,2.37-7.22,3.58C235.79,213.88,234.3,211.64,232.79,209.41z M214.14,163.17c6.17-1.18,12.39-2.12,18.66-2.89
	c6.27,0.77,12.49,1.72,18.66,2.89c5.93,2.07,11.79,4.36,17.6,6.82c5.04,3.8,9.96,7.73,14.71,11.83c4.1,4.75,8.04,9.67,11.83,14.71
	c2.47,5.81,4.76,11.68,6.82,17.6c1.18,6.17,2.12,12.39,2.89,18.66c-0.77,6.27-1.72,12.49-2.89,18.66
	c-2.07,5.93-4.36,11.79-6.82,17.6c-3.8,5.04-7.73,9.96-11.83,14.71c-4.75,4.1-9.67,8.03-14.71,11.83
	c-5.81,2.47-11.68,4.76-17.6,6.82c-6.17,1.18-12.39,2.12-18.66,2.89c-6.27-0.77-12.49-1.72-18.66-2.89
	c-5.93-2.07-11.79-4.36-17.6-6.82c-5.04-3.8-9.96-7.73-14.71-11.83c-4.1-4.75-8.03-9.67-11.83-14.71
	c-2.47-5.81-4.76-11.68-6.82-17.6c-1.18-6.17-2.12-12.39-2.89-18.66c0.77-6.27,1.72-12.49,2.89-18.66
	c2.07-5.93,4.36-11.79,6.82-17.6c3.8-5.04,7.73-9.96,11.83-14.71c4.75-4.1,9.67-8.03,14.71-11.83
	C202.34,167.52,208.21,165.23,214.14,163.17z M232.79,147.5c-7.44,0.75-14.79,1.77-22.03,3.09c-6.93,2.47-13.81,5.27-20.62,8.34
	c-6.06,4.37-11.92,8.92-17.53,13.69c-4.77,5.61-9.32,11.47-13.69,17.53c-3.07,6.82-5.86,13.69-8.34,20.62
	c-1.32,7.24-2.34,14.59-3.09,22.03c0.75,7.44,1.77,14.79,3.09,22.03c2.47,6.93,5.27,13.81,8.34,20.62
	c4.37,6.06,8.92,11.92,13.69,17.53c5.61,4.77,11.47,9.32,17.53,13.69c6.82,3.07,13.69,5.86,20.62,8.34
	c7.24,1.32,14.59,2.34,22.03,3.09c7.44-0.75,14.79-1.77,22.03-3.09c6.93-2.47,13.81-5.27,20.62-8.34
	c6.06-4.37,11.92-8.92,17.53-13.69c4.77-5.61,9.32-11.47,13.69-17.53c3.07-6.82,5.86-13.69,8.34-20.62
	c1.32-7.24,2.34-14.59,3.09-22.03c-0.75-7.44-1.77-14.79-3.09-22.03c-2.47-6.93-5.27-13.81-8.34-20.62
	c-4.37-6.06-8.92-11.92-13.69-17.53c-5.61-4.77-11.47-9.32-17.53-13.69c-6.82-3.07-13.69-5.86-20.62-8.34
	C247.58,149.27,240.23,148.25,232.79,147.5z M219.48,183.11c4.4-0.93,8.84-1.73,13.31-2.42c4.47,0.69,8.91,1.49,13.31,2.42
	c4.28,1.4,8.52,2.93,12.74,4.56c3.53,2.83,6.97,5.75,10.32,8.75c3,3.35,5.92,6.79,8.75,10.32c1.64,4.22,3.16,8.46,4.56,12.74
	c0.93,4.4,1.73,8.84,2.42,13.31c-0.69,4.47-1.49,8.91-2.42,13.31c-1.4,4.28-2.93,8.52-4.56,12.74c-2.84,3.53-5.75,6.97-8.75,10.32
	c-3.35,3-6.79,5.92-10.32,8.75c-4.22,1.64-8.46,3.16-12.74,4.56c-4.4,0.93-8.84,1.73-13.31,2.42c-4.47-0.69-8.91-1.49-13.31-2.42
	c-4.28-1.4-8.52-2.93-12.74-4.56c-3.53-2.83-6.97-5.75-10.32-8.75c-3-3.35-5.92-6.79-8.75-10.32c-1.64-4.22-3.16-8.46-4.56-12.74
	c-0.93-4.4-1.73-8.84-2.42-13.31c0.69-4.47,1.49-8.91,2.42-13.31c1.4-4.28,2.93-8.52,4.56-12.74c2.83-3.53,5.75-6.97,8.75-10.32
	c3.35-3,6.79-5.92,10.32-8.75C210.96,186.03,215.2,184.5,219.48,183.11z M232.79,166.35c-5.74,0.71-11.44,1.59-17.09,2.65
	c-5.43,1.9-10.8,4-16.13,6.25c-4.61,3.49-9.12,7.09-13.48,10.84c-3.75,4.36-7.35,8.86-10.84,13.48c-2.25,5.33-4.35,10.7-6.25,16.13
	c-1.07,5.65-1.94,11.35-2.65,17.09c0.71,5.74,1.59,11.44,2.65,17.09c1.9,5.43,4,10.8,6.25,16.13c3.49,4.61,7.09,9.12,10.84,13.48
	c4.36,3.75,8.86,7.35,13.48,10.84c5.33,2.25,10.7,4.35,16.13,6.25c5.65,1.07,11.35,1.94,17.09,2.65c5.74-0.71,11.44-1.59,17.09-2.65
	c5.43-1.9,10.8-4,16.13-6.25c4.61-3.49,9.12-7.09,13.48-10.84c3.75-4.36,7.35-8.86,10.84-13.48c2.25-5.33,4.35-10.7,6.25-16.13
	c1.07-5.65,1.94-11.35,2.65-17.09c-0.71-5.74-1.59-11.44-2.65-17.09c-1.9-5.43-4-10.8-6.25-16.13c-3.49-4.61-7.09-9.12-10.84-13.48
	c-4.36-3.75-8.86-7.35-13.48-10.84c-5.33-2.25-10.7-4.35-16.13-6.25C244.23,167.94,238.53,167.07,232.79,166.35z M224.83,203.08
	c0.45-0.11,0.89-0.21,1.34-0.32c1.61-2.33,3.21-4.66,4.83-6.96c0.59-0.85,1.19-1.69,1.79-2.53c0.6,0.84,1.2,1.68,1.79,2.53
	c1.62,2.3,3.23,4.63,4.83,6.96c0.45,0.1,0.89,0.21,1.34,0.32c0.44,0.13,0.88,0.26,1.32,0.4c2.56-1.22,5.11-2.43,7.67-3.61
	c0.94-0.44,1.88-0.87,2.82-1.3c0.1,1.03,0.2,2.06,0.29,3.09c0.26,2.8,0.48,5.62,0.71,8.44c0.34,0.31,0.67,0.63,1,0.94
	c0.31,0.33,0.63,0.67,0.94,1c2.82,0.23,5.64,0.45,8.44,0.71c1.03,0.09,2.06,0.19,3.09,0.29c-0.43,0.94-0.86,1.88-1.3,2.82
	c-1.18,2.56-2.39,5.11-3.61,7.67c0.13,0.44,0.27,0.88,0.4,1.32c0.11,0.44,0.21,0.89,0.32,1.34c2.33,1.61,4.66,3.21,6.96,4.83
	c0.85,0.59,1.69,1.19,2.53,1.79c-0.84,0.6-1.68,1.2-2.53,1.79c-2.3,1.62-4.63,3.23-6.96,4.83c-0.1,0.45-0.21,0.89-0.32,1.34
	c-0.13,0.44-0.26,0.88-0.4,1.32c1.22,2.56,2.43,5.11,3.61,7.67c0.44,0.94,0.87,1.88,1.3,2.82c-1.03,0.1-2.06,0.2-3.09,0.29
	c-2.8,0.26-5.62,0.48-8.44,0.71c-0.31,0.33-0.63,0.67-0.94,1c-0.33,0.31-0.67,0.63-1,0.94c-0.23,2.82-0.45,5.64-0.71,8.44
	c-0.09,1.03-0.19,2.06-0.29,3.09c-0.94-0.43-1.88-0.86-2.82-1.3c-2.56-1.18-5.11-2.39-7.67-3.61c-0.44,0.13-0.88,0.27-1.32,0.4
	c-0.44,0.11-0.89,0.21-1.34,0.32c-1.61,2.33-3.21,4.66-4.83,6.96c-0.59,0.85-1.19,1.69-1.79,2.53c-0.6-0.84-1.2-1.68-1.79-2.53
	c-1.62-2.3-3.23-4.63-4.83-6.96c-0.45-0.1-0.89-0.21-1.34-0.32c-0.44-0.13-0.88-0.26-1.32-0.4c-2.56,1.22-5.11,2.43-7.67,3.61
	c-0.94,0.44-1.88,0.87-2.82,1.3c-0.1-1.03-0.2-2.06-0.29-3.09c-0.26-2.8-0.48-5.62-0.71-8.44c-0.34-0.31-0.67-0.63-1-0.94
	c-0.31-0.33-0.63-0.67-0.94-1c-2.82-0.23-5.64-0.45-8.44-0.71c-1.03-0.09-2.06-0.19-3.09-0.29c0.43-0.94,0.86-1.88,1.3-2.82
	c1.18-2.56,2.4-5.11,3.61-7.67c-0.13-0.44-0.27-0.88-0.4-1.32c-0.11-0.44-0.21-0.89-0.31-1.34c-2.33-1.61-4.66-3.21-6.96-4.83
	c-0.85-0.59-1.69-1.19-2.53-1.79c0.84-0.6,1.68-1.2,2.53-1.79c2.3-1.62,4.63-3.23,6.96-4.83c0.1-0.45,0.21-0.89,0.31-1.34
	c0.13-0.44,0.26-0.88,0.4-1.32c-1.22-2.56-2.43-5.11-3.61-7.67c-0.44-0.94-0.87-1.88-1.3-2.82c1.03-0.1,2.06-0.2,3.09-0.29
	c2.8-0.26,5.62-0.48,8.44-0.71c0.31-0.33,0.63-0.67,0.94-1c0.33-0.31,0.67-0.63,1-0.94c0.23-2.82,0.45-5.64,0.71-8.44
	c0.09-1.03,0.19-2.06,0.29-3.09c0.94,0.43,1.88,0.86,2.82,1.3c2.56,1.18,5.11,2.39,7.67,3.61
	C223.95,203.34,224.39,203.21,224.83,203.08z M232.79,186.78c-3.95,0.62-7.87,1.33-11.76,2.15c-3.78,1.24-7.53,2.58-11.25,4.02
	c-3.11,2.51-6.15,5.09-9.11,7.74c-2.65,2.96-5.22,6-7.74,9.11c-1.43,3.73-2.78,7.48-4.02,11.25c-0.81,3.89-1.52,7.81-2.15,11.76
	c0.62,3.95,1.33,7.87,2.15,11.76c1.24,3.78,2.58,7.53,4.02,11.25c2.51,3.11,5.09,6.14,7.74,9.11c2.96,2.65,6,5.22,9.11,7.74
	c3.73,1.43,7.48,2.78,11.25,4.02c3.89,0.81,7.81,1.52,11.76,2.15c3.95-0.62,7.87-1.33,11.76-2.15c3.77-1.24,7.53-2.58,11.25-4.02
	c3.11-2.51,6.14-5.09,9.11-7.74c2.65-2.96,5.22-6,7.74-9.11c1.43-3.73,2.78-7.48,4.02-11.25c0.81-3.89,1.52-7.81,2.15-11.76
	c-0.62-3.95-1.33-7.87-2.15-11.76c-1.24-3.78-2.58-7.53-4.02-11.25c-2.51-3.11-5.09-6.14-7.74-9.11c-2.96-2.65-6-5.22-9.11-7.74
	c-3.73-1.43-7.48-2.78-11.25-4.02C240.66,188.11,236.74,187.4,232.79,186.78z"/>
<path class="st3" d="M215.7,169c5.65-1.07,11.35-1.94,17.09-2.65c5.74,0.71,11.44,1.59,17.09,2.65c5.43,1.9,10.8,4,16.13,6.25
	c4.61,3.49,9.12,7.09,13.48,10.84c3.75,4.36,7.35,8.86,10.84,13.48c2.25,5.33,4.35,10.7,6.25,16.13c1.07,5.65,1.94,11.35,2.65,17.09
	c-0.71,5.74-1.59,11.44-2.65,17.09c-1.9,5.43-4,10.8-6.25,16.13c-3.49,4.61-7.09,9.12-10.84,13.48c-4.36,3.75-8.86,7.35-13.48,10.84
	c-5.33,2.25-10.7,4.35-16.13,6.25c-5.65,1.07-11.35,1.94-17.09,2.65c-5.74-0.71-11.44-1.59-17.09-2.65c-5.43-1.9-10.8-4-16.13-6.25
	c-4.61-3.49-9.12-7.09-13.48-10.84c-3.75-4.36-7.35-8.86-10.84-13.48c-2.25-5.33-4.35-10.7-6.25-16.13
	c-1.07-5.65-1.94-11.35-2.65-17.09c0.71-5.74,1.59-11.44,2.65-17.09c1.9-5.43,4-10.8,6.25-16.13c3.49-4.61,7.09-9.12,10.84-13.48
	c4.36-3.75,8.86-7.35,13.48-10.84C204.9,173,210.27,170.91,215.7,169z M232.79,180.69c-4.47,0.69-8.91,1.49-13.31,2.42
	c-4.28,1.4-8.52,2.93-12.74,4.56c-3.53,2.83-6.97,5.75-10.32,8.75c-3,3.35-5.92,6.79-8.75,10.32c-1.64,4.22-3.16,8.46-4.56,12.74
	c-0.93,4.4-1.73,8.84-2.42,13.31c0.69,4.47,1.49,8.91,2.42,13.31c1.4,4.28,2.93,8.52,4.56,12.74c2.83,3.53,5.75,6.97,8.75,10.32
	c3.35,3,6.79,5.92,10.32,8.75c4.22,1.64,8.46,3.16,12.74,4.56c4.4,0.93,8.84,1.73,13.31,2.42c4.47-0.69,8.91-1.49,13.31-2.42
	c4.28-1.4,8.52-2.93,12.74-4.56c3.53-2.83,6.97-5.75,10.32-8.75c3-3.35,5.92-6.79,8.75-10.32c1.64-4.22,3.16-8.46,4.56-12.74
	c0.93-4.4,1.73-8.84,2.42-13.31c-0.69-4.47-1.49-8.91-2.42-13.31c-1.4-4.28-2.93-8.52-4.56-12.74c-2.84-3.53-5.75-6.97-8.75-10.32
	c-3.35-3-6.79-5.92-10.32-8.75c-4.22-1.64-8.46-3.16-12.74-4.56C241.7,182.18,237.26,181.38,232.79,180.69z"/>
<g>
	<path class="st1" d="M360.76,124.36c0.41,0,0.78,0.03,1.15,0.09c0.1-0.22,0.22-0.44,0.35-0.64c0-0.01,0.01-0.02,0.01-0.04
		c-0.01,0.02-0.03,0.04-0.04,0.06c0.03-0.04,0.04-0.08,0.06-0.12c0.02-0.05,0.04-0.1,0.06-0.16c0.06-0.17,0.12-0.32,0.18-0.47
		c0.03-0.06,0.05-0.13,0.08-0.19c0.34-0.8,0.67-1.35,1.33-2.1c-2.78-3.62-5.58-7.21-8.42-10.73c-2.42-1.95-4.87-3.88-7.34-5.8
		c-2.06-0.59-4.35-0.93-6.89-0.93c-0.03,0-0.06,0-0.09,0c-4.49,3.18-8.99,6.37-13.47,9.55c4.72,3.61,9.39,7.26,13.96,11
		c3.74,4.58,7.39,9.25,11,13.96c0.71-1,1.42-2,2.13-3C357.42,128.18,359.44,124.36,360.76,124.36z"/>
	<path class="st1" d="M349.22,148.2c-0.29-0.29-0.52-0.61-0.71-0.95c-4.3-5.75-8.67-11.44-13.19-16.98
		c-3.56-2.9-7.19-5.73-10.85-8.53c-9.69,30.15-18.38,57.24-26.39,81.27c-14.79,44-30.37,87.21-33.48,87.21
		c-4.24,0-27.55-116.33-31.8-118.69v0c0,0,0,0,0,0c0,0,0,0,0,0v0c-4.25,2.36-27.56,118.69-31.8,118.69
		c-3.12,0-18.69-43.22-33.48-87.21c-8.01-24.03-16.7-51.12-26.39-81.27c-3.66,2.8-7.29,5.63-10.85,8.53
		c-4.52,5.55-8.89,11.23-13.19,16.98c-0.2,0.34-0.42,0.66-0.71,0.95c-0.21,0.27-0.41,0.54-0.61,0.81
		c20.39,61.69,60.25,217.9,80.56,217.9c4.28,0,12.46-28.42,21.03-56.84l15.45-56.77l15.45,56.77c8.57,28.42,16.74,56.84,21.03,56.84
		c20.31,0,60.17-156.2,80.56-217.9C349.63,148.75,349.42,148.47,349.22,148.2z"/>
	<path class="st1" d="M123.89,123.89c4.58-3.74,9.25-7.39,13.96-11c-4.49-3.18-8.98-6.37-13.47-9.55c-0.03,0-0.05,0-0.08,0
		c-2.54,0-4.83,0.34-6.89,0.93c-2.47,1.92-4.92,3.84-7.34,5.79c-2.85,3.54-5.66,7.13-8.45,10.77c0.14,0.11,0.27,0.23,0.39,0.36
		c0.22,0.23,0.41,0.47,0.59,0.71c1.07,0.48,2.03,1.21,2.76,2.09c0.45,0.55,0.81,1.1,1.07,1.68c1.18,1.64,2.64,4.79,4.34,9.18
		c0.71,1,1.42,2,2.13,3C116.5,133.13,120.15,128.46,123.89,123.89z"/>
</g>
<path class="st1" d="M192.93,84.02c5.83-0.95,11.7-1.77,17.59-2.54c-2.81-6.12-5.63-12.25-8.44-18.36
	c-4.77,0.62-9.51,1.29-14.21,2.02c-4.44,1.72-8.88,3.51-13.32,5.35c0.63,6.7,1.25,13.42,1.88,20.12
	C181.91,88.34,187.4,86.12,192.93,84.02z"/>
<path class="st1" d="M272.66,84.02c5.53,2.1,11.02,4.32,16.51,6.6c0.63-6.7,1.25-13.42,1.88-20.12c-4.44-1.85-8.88-3.64-13.32-5.35
	c-4.7-0.74-9.44-1.4-14.21-2.02c-2.81,6.12-5.63,12.25-8.44,18.36C260.95,82.25,266.82,83.08,272.66,84.02z"/>
<path class="st1" d="M341.7,123.89c3.74,4.58,7.39,9.25,11,13.96c3.89-5.49,7.79-11,11.69-16.49c-2.93-3.82-5.87-7.59-8.86-11.3
	c-3.71-2.99-7.48-5.94-11.3-8.86c-5.49,3.89-11,7.79-16.49,11.69C332.45,116.5,337.12,120.15,341.7,123.89z"/>
<path class="st1" d="M381.56,192.93c0.95,5.83,1.77,11.7,2.54,17.59c6.12-2.81,12.25-5.63,18.37-8.44
	c-0.62-4.77-1.29-9.51-2.03-14.21c-1.72-4.44-3.51-8.88-5.35-13.32c-6.7,0.63-13.42,1.25-20.12,1.88
	C377.25,181.91,379.47,187.4,381.56,192.93z"/>
<path class="st1" d="M381.56,272.66c-2.1,5.53-4.32,11.02-6.59,16.51c6.7,0.63,13.42,1.25,20.12,1.88
	c1.85-4.44,3.64-8.88,5.35-13.32c0.74-4.7,1.4-9.44,2.03-14.21c-6.12-2.81-12.25-5.63-18.37-8.44
	C383.33,260.95,382.51,266.82,381.56,272.66z"/>
<path class="st1" d="M341.7,341.7c-4.58,3.74-9.25,7.39-13.96,11c5.49,3.89,11,7.79,16.49,11.69c3.82-2.93,7.59-5.87,11.3-8.86
	c2.99-3.71,5.94-7.48,8.86-11.3c-3.89-5.49-7.79-11-11.69-16.49C349.09,332.45,345.44,337.12,341.7,341.7z"/>
<path class="st1" d="M272.66,381.56c-5.83,0.95-11.7,1.77-17.59,2.54c2.81,6.12,5.63,12.25,8.44,18.36
	c4.77-0.62,9.51-1.29,14.21-2.02c4.44-1.72,8.88-3.51,13.32-5.35c-0.63-6.7-1.25-13.42-1.88-20.12
	C283.68,377.25,278.18,379.47,272.66,381.56z"/>
<path class="st1" d="M192.93,381.56c-5.53-2.1-11.02-4.32-16.51-6.6c-0.63,6.7-1.25,13.42-1.88,20.12
	c4.44,1.85,8.88,3.64,13.32,5.35c4.7,0.74,9.44,1.4,14.21,2.02c2.81-6.12,5.63-12.25,8.44-18.36
	C204.63,383.34,198.76,382.51,192.93,381.56z"/>
<path class="st1" d="M123.89,341.7c-3.74-4.58-7.39-9.25-11-13.96c-3.89,5.49-7.79,11-11.69,16.49c2.93,3.82,5.87,7.59,8.86,11.3
	c3.71,2.99,7.48,5.94,11.3,8.86c5.49-3.89,11-7.79,16.49-11.69C133.13,349.09,128.46,345.44,123.89,341.7z"/>
<path class="st1" d="M84.02,272.66c-0.95-5.83-1.77-11.7-2.54-17.59c-6.12,2.81-12.25,5.63-18.36,8.44
	c0.62,4.77,1.29,9.51,2.02,14.21c1.72,4.44,3.51,8.88,5.35,13.32c6.7-0.63,13.42-1.25,20.12-1.88
	C88.34,283.68,86.12,278.18,84.02,272.66z"/>
<path class="st1" d="M84.02,192.93c2.1-5.53,4.32-11.02,6.6-16.51c-6.7-0.63-13.42-1.25-20.12-1.88c-1.85,4.44-3.64,8.88-5.35,13.32
	c-0.74,4.7-1.4,9.44-2.02,14.21c6.12,2.81,12.25,5.63,18.36,8.44C82.25,204.63,83.08,198.76,84.02,192.93z"/>
<path class="st1" d="M123.89,123.89c4.58-3.74,9.25-7.39,13.96-11c-5.49-3.89-11-7.79-16.49-11.69c-3.82,2.93-7.59,5.87-11.3,8.86
	c-2.99,3.71-5.94,7.48-8.86,11.3c3.89,5.49,7.79,11,11.69,16.49C116.5,133.13,120.15,128.46,123.89,123.89z"/>
<path class="st3" d="M186.3,59.29c4.36-0.69,8.74-1.32,13.16-1.9c-3.03-6.61-6.08-13.21-9.11-19.81c-3.19,0.42-6.36,0.86-9.51,1.32
	c-2.97,1.18-5.93,2.39-8.9,3.62c0.68,7.24,1.34,14.48,2.02,21.71C178.07,62.52,182.19,60.87,186.3,59.29z"/>
<path class="st3" d="M279.28,59.29c4.12,1.58,8.23,3.23,12.34,4.93c0.68-7.24,1.34-14.48,2.02-21.71c-2.97-1.23-5.93-2.44-8.9-3.62
	c-3.16-0.46-6.33-0.9-9.51-1.32c-3.03,6.61-6.08,13.21-9.11,19.81C270.54,57.98,274.93,58.6,279.28,59.29z"/>
<path class="st3" d="M359.8,105.78c2.77,3.43,5.51,6.91,8.23,10.44c4.21-5.93,8.4-11.87,12.61-17.79c-1.96-2.55-3.92-5.08-5.9-7.58
	c-2.5-1.98-5.03-3.94-7.58-5.9c-5.93,4.21-11.87,8.4-17.79,12.61C352.89,100.27,356.38,103.01,359.8,105.78z"/>
<path class="st3" d="M406.29,186.3c0.69,4.36,1.32,8.74,1.9,13.16c6.61-3.03,13.21-6.08,19.81-9.11c-0.42-3.19-0.86-6.36-1.32-9.51
	c-1.18-2.97-2.39-5.93-3.62-8.9c-7.24,0.68-14.48,1.34-21.71,2.02C403.06,178.07,404.71,182.19,406.29,186.3z"/>
<path class="st3" d="M406.29,279.28c-1.58,4.12-3.23,8.23-4.93,12.34c7.24,0.68,14.48,1.34,21.71,2.02c1.23-2.97,2.44-5.93,3.62-8.9
	c0.46-3.16,0.9-6.33,1.32-9.51c-6.61-3.03-13.21-6.08-19.81-9.11C407.61,270.54,406.98,274.93,406.29,279.28z"/>
<path class="st3" d="M359.8,359.81c-3.43,2.77-6.91,5.51-10.44,8.23c5.93,4.21,11.87,8.4,17.79,12.61c2.55-1.96,5.08-3.92,7.58-5.9
	c1.98-2.5,3.94-5.03,5.9-7.58c-4.21-5.93-8.4-11.87-12.61-17.79C365.32,352.89,362.58,356.38,359.8,359.81z"/>
<path class="st3" d="M279.28,406.29c-4.36,0.69-8.74,1.32-13.16,1.9c3.03,6.61,6.08,13.21,9.11,19.81c3.19-0.42,6.36-0.86,9.51-1.32
	c2.97-1.18,5.93-2.39,8.9-3.62c-0.68-7.24-1.34-14.48-2.02-21.71C287.51,403.06,283.4,404.71,279.28,406.29z"/>
<path class="st3" d="M186.3,406.29c-4.12-1.58-8.23-3.23-12.34-4.93c-0.68,7.24-1.34,14.48-2.02,21.71c2.97,1.23,5.93,2.44,8.9,3.62
	c3.16,0.46,6.33,0.9,9.51,1.32c3.03-6.61,6.08-13.21,9.11-19.81C195.05,407.61,190.66,406.98,186.3,406.29z"/>
<path class="st3" d="M105.78,359.81c-2.77-3.43-5.51-6.91-8.23-10.44c-4.21,5.93-8.4,11.87-12.61,17.79
	c1.96,2.55,3.92,5.08,5.9,7.58c2.5,1.98,5.03,3.94,7.58,5.9c5.93-4.21,11.87-8.4,17.79-12.61
	C112.69,365.32,109.21,362.58,105.78,359.81z"/>
<path class="st3" d="M59.29,279.28c-0.69-4.36-1.32-8.74-1.9-13.16c-6.61,3.03-13.21,6.08-19.81,9.11c0.42,3.19,0.86,6.36,1.32,9.51
	c1.18,2.97,2.39,5.93,3.62,8.9c7.24-0.68,14.48-1.34,21.71-2.02C62.52,287.51,60.87,283.4,59.29,279.28z"/>
<path class="st3" d="M59.29,186.3c1.58-4.12,3.23-8.23,4.93-12.34c-7.24-0.68-14.48-1.34-21.71-2.02c-1.23,2.97-2.44,5.93-3.62,8.9
	c-0.46,3.16-0.9,6.33-1.32,9.51c6.61,3.03,13.21,6.08,19.81,9.11C57.98,195.05,58.6,190.66,59.29,186.3z"/>
<path class="st3" d="M105.78,105.78c3.43-2.77,6.91-5.51,10.44-8.23c-5.93-4.21-11.87-8.4-17.79-12.61
	c-2.55,1.96-5.08,3.92-7.58,5.9c-1.98,2.5-3.94,5.03-5.9,7.58c4.21,5.93,8.4,11.87,12.61,17.79
	C100.27,112.69,103.01,109.21,105.78,105.78z"/>
<path class="st1" d="M179.27,33.04c2.81-0.42,5.63-0.81,8.46-1.19c-2.82-6.13-5.64-12.26-8.45-18.4c-1.69,0.21-3.39,0.43-5.08,0.65
	c-1.58,0.65-3.15,1.31-4.72,1.97c0.63,6.72,1.25,13.44,1.88,20.16C173.99,35.15,176.63,34.08,179.27,33.04z"/>
<path class="st1" d="M286.32,33.04c2.64,1.04,5.28,2.11,7.92,3.2c0.63-6.72,1.25-13.44,1.88-20.16c-1.57-0.66-3.15-1.32-4.72-1.97
	c-1.69-0.22-3.38-0.44-5.08-0.65c-2.82,6.13-5.64,12.26-8.45,18.4C280.69,32.23,283.51,32.62,286.32,33.04z"/>
<path class="st1" d="M379.03,86.56c1.76,2.22,3.52,4.47,5.26,6.73c3.9-5.51,7.8-11.01,11.7-16.52c-1.03-1.36-2.06-2.72-3.1-4.07
	c-1.35-1.04-2.71-2.07-4.07-3.1c-5.51,3.9-11.01,7.8-16.52,11.7C374.56,83.05,376.8,84.8,379.03,86.56z"/>
<path class="st1" d="M432.55,179.27c0.42,2.81,0.81,5.63,1.19,8.46c6.13-2.82,12.26-5.64,18.4-8.45c-0.21-1.69-0.43-3.39-0.65-5.08
	c-0.65-1.58-1.31-3.15-1.97-4.72c-6.72,0.63-13.44,1.25-20.16,1.88C430.44,173.99,431.51,176.63,432.55,179.27z"/>
<path class="st1" d="M432.55,286.32c-1.04,2.64-2.11,5.28-3.2,7.92c6.72,0.63,13.44,1.25,20.16,1.88c0.66-1.57,1.32-3.15,1.97-4.72
	c0.22-1.69,0.44-3.38,0.65-5.08c-6.13-2.82-12.26-5.64-18.4-8.45C433.36,280.69,432.97,283.51,432.55,286.32z"/>
<path class="st1" d="M379.03,379.03c-2.22,1.76-4.47,3.52-6.73,5.26c5.51,3.9,11.01,7.8,16.52,11.7c1.36-1.03,2.72-2.06,4.07-3.1
	c1.04-1.35,2.07-2.71,3.1-4.07c-3.9-5.51-7.8-11.01-11.7-16.52C382.54,374.56,380.79,376.8,379.03,379.03z"/>
<path class="st1" d="M286.32,432.55c-2.81,0.42-5.63,0.81-8.46,1.19c2.82,6.13,5.64,12.26,8.45,18.4c1.69-0.21,3.39-0.43,5.08-0.65
	c1.58-0.65,3.15-1.31,4.72-1.97c-0.63-6.72-1.25-13.44-1.88-20.16C291.6,430.44,288.96,431.51,286.32,432.55z"/>
<path class="st1" d="M179.27,432.55c-2.64-1.04-5.28-2.11-7.92-3.2c-0.63,6.72-1.25,13.44-1.88,20.16c1.57,0.66,3.15,1.32,4.72,1.97
	c1.69,0.22,3.38,0.44,5.08,0.65c2.82-6.13,5.64-12.26,8.45-18.4C184.9,433.36,182.08,432.97,179.27,432.55z"/>
<path class="st1" d="M86.56,379.03c-1.76-2.22-3.52-4.47-5.26-6.73c-3.9,5.51-7.8,11.01-11.7,16.52c1.03,1.36,2.06,2.72,3.1,4.07
	c1.35,1.04,2.71,2.07,4.07,3.1c5.51-3.9,11.01-7.8,16.52-11.7C91.03,382.54,88.78,380.79,86.56,379.03z"/>
<path class="st1" d="M33.04,286.32c-0.42-2.81-0.81-5.63-1.19-8.46c-6.13,2.82-12.26,5.64-18.4,8.45c0.21,1.69,0.43,3.39,0.65,5.08
	c0.65,1.58,1.31,3.15,1.97,4.72c6.72-0.63,13.44-1.25,20.16-1.88C35.15,291.6,34.08,288.96,33.04,286.32z"/>
<path class="st1" d="M33.04,179.27c1.04-2.64,2.11-5.28,3.2-7.92c-6.72-0.63-13.44-1.25-20.16-1.88c-0.66,1.57-1.32,3.15-1.97,4.72
	c-0.22,1.69-0.44,3.38-0.65,5.08c6.13,2.82,12.26,5.64,18.4,8.45C32.23,184.9,32.62,182.08,33.04,179.27z"/>
<path class="st1" d="M86.56,86.56c2.22-1.76,4.47-3.52,6.73-5.26c-5.51-3.9-11.01-7.8-16.52-11.7c-1.36,1.03-2.72,2.06-4.07,3.1
	c-1.04,1.35-2.07,2.71-3.1,4.07c3.9,5.51,7.8,11.01,11.7,16.52C83.05,91.03,84.8,88.79,86.56,86.56z"/>
<path class="st0" d="M206.67,120.6c3.04,5.26,9.27,6.8,14.64,4.65c0.36-0.06,0.73-0.2,1.09-0.44c0.4-0.19,0.71-0.45,0.94-0.73
	c4.54-3.57,6.33-9.74,3.29-15c-3.13-5.42-10.33-7.35-15.75-4.22C205.47,107.98,203.55,115.18,206.67,120.6z M219.36,119.57
	c-6.23,3.18-11.59-5.92-5.46-9.46C220.05,106.56,225.24,115.76,219.36,119.57z"/>
<path class="st0" d="M154.08,148.69c5.26,3.04,11.43,1.25,15-3.29c0.28-0.23,0.54-0.54,0.72-0.93c0.25-0.37,0.39-0.75,0.45-1.1
	c2.15-5.36,0.61-11.6-4.65-14.64c-5.42-3.13-12.62-1.2-15.75,4.22C146.73,138.36,148.66,145.56,154.08,148.69z M164.55,141.45
	c-3.8,5.87-12.99,0.67-9.46-5.46C158.64,129.85,167.73,135.22,164.55,141.45z"/>
<path class="st0" d="M122.57,199.32c6.08,0,10.53-4.63,11.35-10.35c0.12-0.34,0.2-0.73,0.16-1.16c0.04-0.45-0.04-0.84-0.16-1.18
	c-0.82-5.72-5.27-10.35-11.35-10.35c-6.25,0-11.53,5.27-11.53,11.53C111.04,194.05,116.32,199.32,122.57,199.32z M128.02,187.81
	c-0.36,6.99-10.92,7.08-10.92,0C117.1,180.71,127.66,180.82,128.02,187.81z"/>
<path class="st0" d="M120.6,258.91c5.26-3.04,6.8-9.27,4.65-14.64c-0.06-0.36-0.2-0.73-0.44-1.09c-0.19-0.4-0.45-0.71-0.73-0.94
	c-3.57-4.54-9.74-6.32-15-3.29c-5.42,3.13-7.35,10.33-4.22,15.75C107.98,260.11,115.18,262.04,120.6,258.91z M119.57,246.22
	c3.18,6.23-5.92,11.59-9.46,5.46C106.56,245.54,115.76,240.35,119.57,246.22z"/>
<path class="st0" d="M148.69,311.51c3.04-5.26,1.25-11.43-3.29-15c-0.23-0.28-0.54-0.54-0.93-0.72c-0.37-0.25-0.74-0.39-1.1-0.45
	c-5.36-2.15-11.6-0.61-14.64,4.65c-3.13,5.42-1.2,12.62,4.22,15.75C138.36,318.86,145.56,316.93,148.69,311.51z M141.45,301.04
	c5.87,3.8,0.67,12.99-5.46,9.46C129.85,306.94,135.22,297.85,141.45,301.04z"/>
<path class="st0" d="M199.32,343.02c0-6.08-4.63-10.53-10.35-11.35c-0.34-0.12-0.73-0.2-1.16-0.16c-0.45-0.04-0.84,0.04-1.18,0.16
	c-5.72,0.82-10.35,5.27-10.35,11.35c0,6.26,5.27,11.53,11.53,11.53C194.05,354.54,199.32,349.27,199.32,343.02z M187.81,337.56
	c6.99,0.36,7.08,10.92,0,10.92C180.71,348.48,180.82,337.92,187.81,337.56z"/>
<path class="st0" d="M258.91,344.99c-3.04-5.26-9.27-6.8-14.63-4.65c-0.36,0.06-0.73,0.2-1.09,0.44c-0.4,0.19-0.71,0.45-0.94,0.73
	c-4.54,3.57-6.32,9.74-3.29,15c3.13,5.42,10.33,7.35,15.75,4.22C260.11,357.6,262.04,350.4,258.91,344.99z M246.22,346.02
	c6.23-3.18,11.59,5.92,5.46,9.46C245.54,359.02,240.35,349.82,246.22,346.02z"/>
<path class="st0" d="M311.51,316.89c-5.26-3.04-11.43-1.25-15,3.29c-0.28,0.23-0.54,0.54-0.72,0.93c-0.25,0.37-0.39,0.75-0.45,1.1
	c-2.15,5.36-0.61,11.6,4.65,14.64c5.42,3.13,12.62,1.2,15.75-4.22C318.86,327.22,316.93,320.02,311.51,316.89z M301.04,324.14
	c3.8-5.87,12.99-0.67,9.46,5.46C306.94,335.74,297.85,330.37,301.04,324.14z"/>
<path class="st0" d="M343.02,266.27c-6.08,0-10.53,4.63-11.35,10.35c-0.13,0.34-0.2,0.73-0.16,1.16c-0.04,0.45,0.04,0.84,0.16,1.18
	c0.82,5.72,5.27,10.35,11.35,10.35c6.25,0,11.53-5.27,11.53-11.53C354.54,271.54,349.27,266.27,343.02,266.27z M337.56,277.78
	c0.36-6.99,10.92-7.08,10.92,0C348.48,284.87,337.92,284.76,337.56,277.78z"/>
<path class="st0" d="M344.99,206.67c-5.26,3.04-6.8,9.27-4.65,14.64c0.06,0.36,0.2,0.73,0.44,1.09c0.19,0.4,0.45,0.71,0.73,0.94
	c3.57,4.54,9.74,6.32,15,3.29c5.42-3.13,7.35-10.33,4.22-15.75C357.6,205.47,350.4,203.55,344.99,206.67z M346.02,219.36
	c-3.18-6.23,5.92-11.59,9.46-5.46C359.02,220.05,349.82,225.24,346.02,219.36z"/>
<path class="st0" d="M316.89,154.08c-3.04,5.26-1.25,11.43,3.29,15c0.23,0.28,0.54,0.54,0.93,0.72c0.37,0.25,0.75,0.39,1.1,0.45
	c5.36,2.15,11.6,0.61,14.64-4.65c3.13-5.42,1.2-12.62-4.22-15.75C327.22,146.73,320.02,148.66,316.89,154.08z M324.14,164.55
	c-5.87-3.8-0.67-12.99,5.46-9.46C335.74,158.64,330.37,167.73,324.14,164.55z"/>
<path class="st0" d="M266.27,122.57c0,6.08,4.63,10.53,10.35,11.35c0.34,0.12,0.73,0.2,1.16,0.16c0.45,0.04,0.84-0.04,1.18-0.16
	c5.72-0.82,10.35-5.27,10.35-11.35c0-6.26-5.27-11.53-11.53-11.53C271.54,111.04,266.27,116.32,266.27,122.57z M277.78,128.02
	c-6.99-0.36-7.08-10.92,0-10.92C284.87,117.1,284.76,127.66,277.78,128.02z"/>
<path class="st0" d="M258.91,120.6c-3.04,5.26-9.27,6.8-14.63,4.65c-0.36-0.06-0.73-0.2-1.09-0.44c-0.4-0.19-0.71-0.45-0.94-0.73
	c-4.54-3.57-6.32-9.74-3.29-15c3.13-5.42,10.33-7.35,15.75-4.22C260.11,107.98,262.04,115.18,258.91,120.6z M246.22,119.57
	c6.23,3.18,11.59-5.92,5.46-9.46C245.54,106.56,240.35,115.76,246.22,119.57z"/>
<path class="st0" d="M199.32,122.57c0,6.08-4.63,10.53-10.35,11.35c-0.34,0.12-0.73,0.2-1.16,0.16c-0.45,0.04-0.84-0.04-1.18-0.16
	c-5.72-0.82-10.35-5.27-10.35-11.35c0-6.26,5.27-11.53,11.53-11.53C194.05,111.04,199.32,116.32,199.32,122.57z M187.81,128.02
	c6.99-0.36,7.08-10.92,0-10.92C180.71,117.1,180.82,127.66,187.81,128.02z"/>
<path class="st0" d="M148.69,154.08c3.04,5.26,1.25,11.43-3.29,15c-0.23,0.28-0.54,0.54-0.93,0.72c-0.37,0.25-0.74,0.39-1.1,0.45
	c-5.36,2.15-11.6,0.61-14.64-4.65c-3.13-5.42-1.2-12.62,4.22-15.75C138.36,146.73,145.56,148.66,148.69,154.08z M141.45,164.55
	c5.87-3.8,0.67-12.99-5.46-9.46C129.85,158.64,135.22,167.73,141.45,164.55z"/>
<path class="st0" d="M120.6,206.67c5.26,3.04,6.8,9.27,4.65,14.64c-0.06,0.36-0.2,0.73-0.44,1.09c-0.19,0.4-0.45,0.71-0.73,0.94
	c-3.57,4.54-9.74,6.32-15,3.29c-5.42-3.13-7.35-10.33-4.22-15.75C107.98,205.47,115.18,203.55,120.6,206.67z M119.57,219.36
	c3.18-6.23-5.92-11.59-9.46-5.46C106.56,220.05,115.76,225.24,119.57,219.36z"/>
<path class="st0" d="M122.57,266.27c6.08,0,10.53,4.63,11.35,10.35c0.12,0.34,0.2,0.73,0.16,1.16c0.04,0.45-0.04,0.84-0.16,1.18
	c-0.82,5.72-5.27,10.35-11.35,10.35c-6.25,0-11.53-5.27-11.53-11.53C111.04,271.54,116.32,266.27,122.57,266.27z M128.02,277.78
	c-0.36-6.99-10.92-7.08-10.92,0C117.1,284.87,127.66,284.76,128.02,277.78z"/>
<path class="st0" d="M154.08,316.89c5.26-3.04,11.43-1.25,15,3.29c0.28,0.23,0.54,0.54,0.72,0.93c0.25,0.37,0.39,0.75,0.45,1.1
	c2.15,5.36,0.61,11.6-4.65,14.64c-5.42,3.13-12.62,1.2-15.75-4.22C146.73,327.22,148.66,320.02,154.08,316.89z M164.55,324.14
	c-3.8-5.87-12.99-0.67-9.46,5.46C158.64,335.74,167.73,330.37,164.55,324.14z"/>
<path class="st0" d="M206.67,344.99c3.04-5.26,9.27-6.8,14.64-4.65c0.36,0.06,0.73,0.2,1.09,0.44c0.4,0.19,0.71,0.45,0.94,0.73
	c4.54,3.57,6.33,9.74,3.29,15c-3.13,5.42-10.33,7.35-15.75,4.22C205.47,357.6,203.55,350.4,206.67,344.99z M219.36,346.02
	c-6.23-3.18-11.59,5.92-5.46,9.46C220.05,359.02,225.24,349.82,219.36,346.02z"/>
<path class="st0" d="M266.27,343.02c0-6.08,4.63-10.53,10.35-11.35c0.34-0.12,0.73-0.2,1.16-0.16c0.45-0.04,0.84,0.04,1.18,0.16
	c5.72,0.82,10.35,5.27,10.35,11.35c0,6.26-5.27,11.53-11.53,11.53C271.54,354.54,266.27,349.27,266.27,343.02z M277.78,337.56
	c-6.99,0.36-7.08,10.92,0,10.92C284.87,348.48,284.76,337.92,277.78,337.56z"/>
<path class="st0" d="M316.89,311.51c-3.04-5.26-1.25-11.43,3.29-15c0.23-0.28,0.54-0.54,0.93-0.72c0.37-0.25,0.75-0.39,1.1-0.45
	c5.36-2.15,11.6-0.61,14.64,4.65c3.13,5.42,1.2,12.62-4.22,15.75C327.22,318.86,320.02,316.93,316.89,311.51z M324.14,301.04
	c-5.87,3.8-0.67,12.99,5.46,9.46C335.74,306.94,330.37,297.85,324.14,301.04z"/>
<path class="st0" d="M344.99,258.91c-5.26-3.04-6.8-9.27-4.65-14.64c0.06-0.36,0.2-0.73,0.44-1.09c0.19-0.4,0.45-0.71,0.73-0.94
	c3.57-4.54,9.74-6.32,15-3.29c5.42,3.13,7.35,10.33,4.22,15.75C357.6,260.11,350.4,262.04,344.99,258.91z M346.02,246.22
	c-3.18,6.23,5.92,11.59,9.46,5.46C359.02,245.54,349.82,240.35,346.02,246.22z"/>
<path class="st0" d="M343.02,199.32c-6.08,0-10.53-4.63-11.35-10.35c-0.13-0.34-0.2-0.73-0.16-1.16c-0.04-0.45,0.04-0.84,0.16-1.18
	c0.82-5.72,5.27-10.35,11.35-10.35c6.25,0,11.53,5.27,11.53,11.53C354.54,194.05,349.27,199.32,343.02,199.32z M337.56,187.81
	c0.36,6.99,10.92,7.08,10.92,0C348.48,180.71,337.92,180.82,337.56,187.81z"/>
<path class="st0" d="M311.51,148.69c-5.26,3.04-11.43,1.25-15-3.29c-0.28-0.23-0.54-0.54-0.72-0.93c-0.25-0.37-0.39-0.75-0.45-1.1
	c-2.15-5.36-0.61-11.6,4.65-14.64c5.42-3.13,12.62-1.2,15.75,4.22C318.86,138.36,316.93,145.56,311.51,148.69z M301.04,141.45
	c3.8,5.87,12.99,0.67,9.46-5.46C306.94,129.85,297.85,135.22,301.04,141.45z"/>
<path class="st3" d="M213.91,110.11c-6.13,3.54-0.77,12.64,5.46,9.46C225.24,115.76,220.05,106.56,213.91,110.11z"/>
<path class="st3" d="M155.09,135.99c-3.54,6.13,5.65,11.33,9.46,5.46C167.73,135.22,158.64,129.85,155.09,135.99z"/>
<path class="st3" d="M117.1,187.81c0,7.08,10.56,6.99,10.92,0C127.66,180.82,117.1,180.71,117.1,187.81z"/>
<path class="st3" d="M110.11,251.68c3.54,6.13,12.64,0.77,9.46-5.46C115.76,240.35,106.56,245.54,110.11,251.68z"/>
<path class="st3" d="M135.99,310.49c6.13,3.54,11.33-5.65,5.46-9.46C135.22,297.85,129.85,306.94,135.99,310.49z"/>
<path class="st3" d="M187.81,348.48c7.08,0,6.99-10.56,0-10.92C180.82,337.92,180.71,348.48,187.81,348.48z"/>
<path class="st3" d="M251.68,355.48c6.13-3.54,0.77-12.64-5.46-9.46C240.35,349.82,245.54,359.02,251.68,355.48z"/>
<path class="st3" d="M310.49,329.6c3.54-6.13-5.65-11.33-9.46-5.46C297.85,330.37,306.94,335.74,310.49,329.6z"/>
<path class="st3" d="M348.48,277.78c0-7.08-10.56-6.99-10.92,0C337.92,284.76,348.48,284.87,348.48,277.78z"/>
<path class="st3" d="M355.48,213.91c-3.54-6.13-12.64-0.77-9.46,5.46C349.82,225.24,359.02,220.05,355.48,213.91z"/>
<path class="st3" d="M329.6,155.09c-6.13-3.54-11.33,5.65-5.46,9.46C330.37,167.73,335.74,158.64,329.6,155.09z"/>
<path class="st3" d="M277.78,117.1c-7.08,0-6.99,10.56,0,10.92C284.76,127.66,284.87,117.1,277.78,117.1z"/>
<path class="st3" d="M251.68,110.11c6.13,3.54,0.77,12.64-5.46,9.46C240.35,115.76,245.54,106.56,251.68,110.11z"/>
<path class="st3" d="M187.81,117.1c7.08,0,6.99,10.56,0,10.92C180.82,127.66,180.71,117.1,187.81,117.1z"/>
<path class="st3" d="M135.99,155.09c6.13-3.54,11.33,5.65,5.46,9.46C135.22,167.73,129.85,158.64,135.99,155.09z"/>
<path class="st3" d="M110.11,213.91c3.54-6.13,12.64-0.77,9.46,5.46C115.76,225.24,106.56,220.05,110.11,213.91z"/>
<path class="st3" d="M117.1,277.78c0-7.08,10.56-6.99,10.92,0C127.66,284.76,117.1,284.87,117.1,277.78z"/>
<path class="st3" d="M155.09,329.6c-3.54-6.13,5.65-11.33,9.46-5.46C167.73,330.37,158.64,335.74,155.09,329.6z"/>
<path class="st3" d="M213.91,355.48c-6.13-3.54-0.77-12.64,5.46-9.46C225.24,349.82,220.05,359.02,213.91,355.48z"/>
<path class="st3" d="M277.78,348.48c-7.08,0-6.99-10.56,0-10.92C284.76,337.92,284.87,348.48,277.78,348.48z"/>
<path class="st3" d="M329.6,310.49c-6.13,3.54-11.33-5.65-5.46-9.46C330.37,297.85,335.74,306.94,329.6,310.49z"/>
<path class="st3" d="M355.48,251.68c-3.54,6.13-12.64,0.77-9.46-5.46C349.82,240.35,359.02,245.54,355.48,251.68z"/>
<path class="st3" d="M348.48,187.81c0,7.08-10.56,6.99-10.92,0C337.92,180.82,348.48,180.71,348.48,187.81z"/>
<path class="st3" d="M310.49,135.99c3.54,6.13-5.65,11.33-9.46,5.46C297.85,135.22,306.94,129.85,310.49,135.99z"/>
<path class="st4" d="M232.79,45.2c-4.38-11.81-8.75-23.63-13.13-35.45c-10.31,0.65-20.63,1.47-30.94,2.59
	c10.42,22.67,20.83,45.34,31.26,68c4.26-0.46,8.54-0.87,12.81-1.23c4.28,0.36,8.55,0.77,12.81,1.23
	c10.42-22.67,20.83-45.34,31.26-68c-10.31-1.12-20.63-1.94-30.94-2.59C241.54,21.57,237.17,33.39,232.79,45.2z"/>
<path class="st4" d="M326.59,70.33c2.12-12.42,4.24-24.84,6.36-37.26c-9.26-4.59-18.6-9.04-28.09-13.22
	c-2.31,24.84-4.63,49.68-6.93,74.52c3.93,1.73,7.83,3.51,11.71,5.34c3.52,2.45,7.02,4.94,10.48,7.47
	c20.36-14.42,40.71-28.85,61.07-43.27c-8.37-6.13-16.89-12-25.5-17.72C345.98,54.24,336.29,62.29,326.59,70.33z"/>
<path class="st4" d="M395.25,139c8.04-9.7,16.09-19.39,24.13-29.09c-5.72-8.61-11.59-17.13-17.72-25.5
	c-14.42,20.36-28.85,40.71-43.27,61.07c2.53,3.46,5.02,6.96,7.47,10.48c1.83,3.88,3.61,7.79,5.34,11.71
	c24.84-2.31,49.68-4.63,74.52-6.93c-4.18-9.49-8.63-18.84-13.22-28.09C420.09,134.76,407.67,136.88,395.25,139z"/>
<path class="st4" d="M420.39,232.79c11.81-4.38,23.63-8.75,35.45-13.13c-0.65-10.31-1.47-20.63-2.59-30.94
	c-22.66,10.42-45.34,20.83-68,31.26c0.47,4.26,0.87,8.54,1.23,12.81c-0.36,4.28-0.77,8.55-1.23,12.81
	c22.67,10.42,45.34,20.83,68,31.26c1.12-10.31,1.94-20.63,2.59-30.94C444.02,241.54,432.2,237.17,420.39,232.79z"/>
<path class="st4" d="M395.25,326.59c12.42,2.12,24.84,4.24,37.26,6.36c4.59-9.26,9.04-18.6,13.22-28.09
	c-24.84-2.31-49.68-4.63-74.52-6.93c-1.73,3.93-3.51,7.83-5.34,11.71c-2.45,3.52-4.94,7.02-7.47,10.48
	c14.42,20.36,28.85,40.71,43.27,61.07c6.13-8.37,12-16.89,17.72-25.5C411.34,345.98,403.3,336.29,395.25,326.59z"/>
<path class="st4" d="M326.59,395.25c9.7,8.04,19.39,16.09,29.09,24.13c8.61-5.72,17.13-11.59,25.5-17.72
	c-20.36-14.42-40.71-28.85-61.07-43.27c-3.46,2.53-6.96,5.02-10.48,7.47c-3.88,1.82-7.79,3.61-11.71,5.34
	c2.31,24.84,4.63,49.68,6.93,74.52c9.49-4.18,18.84-8.63,28.09-13.22C330.83,420.09,328.71,407.67,326.59,395.25z"/>
<path class="st4" d="M232.79,420.39c4.38,11.81,8.75,23.63,13.13,35.45c10.31-0.65,20.63-1.47,30.94-2.59
	c-10.42-22.67-20.83-45.34-31.26-68c-4.26,0.46-8.54,0.87-12.81,1.23c-4.28-0.36-8.55-0.77-12.81-1.23
	c-10.42,22.67-20.83,45.34-31.26,68c10.31,1.12,20.63,1.94,30.94,2.59C224.04,444.02,228.42,432.2,232.79,420.39z"/>
<path class="st4" d="M139,395.25c-2.12,12.42-4.24,24.84-6.36,37.26c9.26,4.59,18.6,9.04,28.09,13.22
	c2.31-24.84,4.63-49.68,6.93-74.52c-3.93-1.73-7.83-3.51-11.71-5.34c-3.52-2.45-7.02-4.94-10.48-7.47
	c-20.36,14.42-40.71,28.85-61.07,43.27c8.37,6.13,16.89,12,25.5,17.72C119.6,411.34,129.3,403.3,139,395.25z"/>
<path class="st4" d="M70.33,326.59c-8.04,9.7-16.09,19.39-24.13,29.09c5.72,8.61,11.59,17.13,17.72,25.5
	c14.42-20.36,28.85-40.71,43.27-61.07c-2.53-3.46-5.02-6.96-7.47-10.48c-1.82-3.88-3.61-7.79-5.34-11.71
	c-24.84,2.31-49.68,4.63-74.52,6.93c4.18,9.49,8.63,18.84,13.22,28.09C45.49,330.83,57.91,328.71,70.33,326.59z"/>
<path class="st4" d="M45.2,232.79c-11.81,4.38-23.63,8.75-35.45,13.13c0.65,10.31,1.47,20.63,2.59,30.94
	c22.67-10.42,45.34-20.83,68-31.26c-0.46-4.26-0.87-8.54-1.23-12.81c0.36-4.28,0.77-8.55,1.23-12.81
	c-22.67-10.42-45.34-20.83-68-31.26c-1.12,10.31-1.94,20.63-2.59,30.94C21.57,224.04,33.39,228.42,45.2,232.79z"/>
<path class="st4" d="M70.33,139c-12.42-2.12-24.84-4.24-37.26-6.36c-4.59,9.26-9.04,18.6-13.22,28.09
	c24.84,2.31,49.68,4.63,74.52,6.93c1.73-3.93,3.52-7.83,5.34-11.71c2.45-3.52,4.94-7.02,7.47-10.48
	c-14.42-20.36-28.85-40.71-43.27-61.07c-6.13,8.37-12,16.89-17.72,25.5C54.24,119.6,62.29,129.3,70.33,139z"/>
<path class="st4" d="M139,70.33c-9.7-8.04-19.39-16.09-29.09-24.13c-8.61,5.72-17.13,11.59-25.5,17.72
	c20.36,14.42,40.71,28.85,61.07,43.27c3.46-2.53,6.96-5.02,10.48-7.47c3.88-1.82,7.79-3.61,11.71-5.34
	c-2.31-24.84-4.63-49.68-6.93-74.52c-9.49,4.18-18.84,8.63-28.09,13.22C134.76,45.49,136.88,57.91,139,70.33z"/>
<path class="st1" d="M232.79,8.96c-1.23,0.07-2.45,0.14-3.68,0.22c1.22,3.32,2.45,6.64,3.68,9.95c1.23-3.32,2.46-6.63,3.68-9.95
	C235.25,9.1,234.02,9.03,232.79,8.96z"/>
<path class="st1" d="M344.71,38.94c-1.1-0.55-2.2-1.1-3.3-1.65c-0.6,3.49-1.2,6.97-1.79,10.46c2.72-2.26,5.44-4.51,8.16-6.78
	C346.77,40.3,345.74,39.62,344.71,38.94z"/>
<path class="st1" d="M426.64,120.87c-0.68-1.03-1.35-2.05-2.03-3.08c-2.26,2.72-4.52,5.44-6.78,8.16c3.49-0.59,6.97-1.19,10.46-1.79
	C427.74,123.07,427.19,121.97,426.64,120.87z"/>
<path class="st1" d="M456.63,232.79c-0.07-1.23-0.14-2.45-0.22-3.68c-3.32,1.22-6.64,2.45-9.95,3.68c3.32,1.23,6.63,2.46,9.95,3.68
	C456.49,235.25,456.56,234.02,456.63,232.79z"/>
<path class="st1" d="M426.64,344.71c0.55-1.1,1.1-2.2,1.65-3.3c-3.49-0.6-6.97-1.2-10.46-1.79c2.26,2.72,4.52,5.44,6.78,8.16
	C425.29,346.77,425.97,345.74,426.64,344.71z"/>
<path class="st1" d="M344.71,426.64c1.03-0.68,2.05-1.35,3.08-2.03c-2.72-2.26-5.44-4.52-8.16-6.78c0.59,3.49,1.19,6.97,1.79,10.46
	C342.51,427.74,343.61,427.19,344.71,426.64z"/>
<path class="st1" d="M232.79,456.63c1.23-0.07,2.45-0.14,3.68-0.22c-1.22-3.32-2.45-6.64-3.68-9.95c-1.23,3.32-2.46,6.63-3.68,9.95
	C230.34,456.49,231.57,456.56,232.79,456.63z"/>
<path class="st1" d="M120.87,426.64c1.1,0.55,2.2,1.1,3.3,1.65c0.6-3.49,1.2-6.97,1.79-10.46c-2.72,2.26-5.44,4.51-8.16,6.78
	C118.82,425.29,119.85,425.97,120.87,426.64z"/>
<path class="st1" d="M38.94,344.71c0.68,1.03,1.35,2.05,2.03,3.08c2.26-2.72,4.52-5.44,6.78-8.16c-3.49,0.59-6.97,1.19-10.46,1.79
	C37.84,342.51,38.39,343.61,38.94,344.71z"/>
<path class="st1" d="M8.95,232.79c0.07,1.23,0.14,2.45,0.22,3.68c3.32-1.22,6.64-2.45,9.95-3.68c-3.32-1.23-6.63-2.46-9.95-3.68
	C9.1,230.34,9.03,231.57,8.95,232.79z"/>
<path class="st1" d="M38.94,120.87c-0.55,1.1-1.1,2.2-1.65,3.3c3.49,0.6,6.97,1.2,10.46,1.79c-2.26-2.72-4.51-5.44-6.78-8.16
	C40.3,118.82,39.62,119.85,38.94,120.87z"/>
<path class="st1" d="M120.87,38.94c-1.03,0.68-2.05,1.35-3.08,2.03c2.72,2.26,5.44,4.52,8.16,6.78c-0.59-3.49-1.19-6.97-1.79-10.46
	C123.07,37.84,121.97,38.39,120.87,38.94z"/>
<path class="st5" d="M210.77,150.59c7.24-1.32,14.59-2.34,22.03-3.09c7.44,0.75,14.79,1.77,22.03,3.09
	c6.93,2.47,13.81,5.27,20.62,8.34c6.06,4.37,11.92,8.92,17.53,13.69c4.77,5.61,9.32,11.47,13.69,17.53
	c3.07,6.82,5.86,13.69,8.34,20.62c1.32,7.24,2.34,14.59,3.09,22.03c-0.75,7.44-1.77,14.79-3.09,22.03
	c-2.47,6.93-5.27,13.81-8.34,20.62c-4.37,6.06-8.92,11.92-13.69,17.53c-5.61,4.77-11.47,9.32-17.53,13.69
	c-6.82,3.07-13.69,5.86-20.62,8.34c-7.24,1.32-14.59,2.34-22.03,3.09c-7.44-0.75-14.79-1.77-22.03-3.09
	c-6.93-2.47-13.81-5.27-20.62-8.34c-6.06-4.37-11.92-8.92-17.53-13.69c-4.77-5.61-9.32-11.47-13.69-17.53
	c-3.07-6.82-5.86-13.69-8.34-20.62c-1.32-7.24-2.34-14.59-3.09-22.03c0.75-7.44,1.77-14.79,3.09-22.03
	c2.47-6.93,5.27-13.81,8.34-20.62c4.37-6.06,8.92-11.92,13.69-17.53c5.61-4.77,11.47-9.32,17.53-13.69
	C196.96,155.86,203.83,153.06,210.77,150.59z M232.79,160.27c-6.27,0.77-12.49,1.72-18.66,2.89c-5.93,2.07-11.79,4.36-17.6,6.82
	c-5.04,3.8-9.96,7.73-14.71,11.83c-4.1,4.75-8.03,9.67-11.83,14.71c-2.47,5.81-4.76,11.68-6.82,17.6
	c-1.18,6.17-2.12,12.39-2.89,18.66c0.77,6.27,1.72,12.49,2.89,18.66c2.07,5.93,4.36,11.79,6.82,17.6c3.8,5.04,7.73,9.96,11.83,14.71
	c4.75,4.1,9.67,8.03,14.71,11.83c5.81,2.47,11.68,4.76,17.6,6.82c6.17,1.18,12.39,2.12,18.66,2.89c6.27-0.77,12.49-1.72,18.66-2.89
	c5.93-2.07,11.79-4.36,17.6-6.82c5.04-3.8,9.96-7.73,14.71-11.83c4.1-4.75,8.04-9.67,11.83-14.71c2.47-5.81,4.76-11.68,6.82-17.6
	c1.18-6.17,2.12-12.39,2.89-18.66c-0.77-6.27-1.72-12.49-2.89-18.66c-2.07-5.93-4.36-11.79-6.82-17.6
	c-3.8-5.04-7.73-9.96-11.83-14.71c-4.75-4.1-9.67-8.03-14.71-11.83c-5.81-2.47-11.68-4.76-17.6-6.82
	C245.28,161.99,239.06,161.04,232.79,160.27z"/>
<path class="st5" d="M221.04,188.92c3.89-0.81,7.81-1.52,11.76-2.15c3.95,0.62,7.87,1.33,11.76,2.15c3.77,1.24,7.53,2.58,11.25,4.02
	c3.11,2.51,6.14,5.09,9.11,7.74c2.65,2.96,5.22,6,7.74,9.11c1.43,3.73,2.78,7.48,4.02,11.25c0.81,3.89,1.52,7.81,2.15,11.76
	c-0.62,3.95-1.33,7.87-2.15,11.76c-1.24,3.78-2.58,7.53-4.02,11.25c-2.51,3.11-5.09,6.14-7.74,9.11c-2.96,2.65-6,5.22-9.11,7.74
	c-3.73,1.43-7.48,2.78-11.25,4.02c-3.89,0.81-7.81,1.52-11.76,2.15c-3.95-0.62-7.87-1.33-11.76-2.15
	c-3.78-1.24-7.53-2.58-11.25-4.02c-3.11-2.51-6.15-5.09-9.11-7.74c-2.65-2.96-5.22-6-7.74-9.11c-1.43-3.73-2.78-7.48-4.02-11.25
	c-0.81-3.89-1.52-7.81-2.15-11.76c0.62-3.95,1.33-7.87,2.15-11.76c1.24-3.78,2.58-7.53,4.02-11.25c2.51-3.11,5.09-6.14,7.74-9.11
	c2.96-2.65,6-5.22,9.11-7.74C213.51,191.51,217.26,190.16,221.04,188.92z M232.79,193.27c-0.6,0.84-1.2,1.68-1.79,2.53
	c-1.62,2.3-3.23,4.63-4.83,6.96c-0.45,0.1-0.89,0.21-1.34,0.32c-0.44,0.13-0.88,0.26-1.32,0.4c-2.56-1.22-5.11-2.43-7.67-3.61
	c-0.94-0.44-1.88-0.87-2.82-1.3c-0.1,1.03-0.2,2.06-0.29,3.09c-0.26,2.8-0.48,5.62-0.71,8.44c-0.34,0.31-0.67,0.63-1,0.94
	c-0.31,0.33-0.63,0.67-0.94,1c-2.82,0.23-5.64,0.45-8.44,0.71c-1.03,0.09-2.06,0.19-3.09,0.29c0.43,0.94,0.86,1.88,1.3,2.82
	c1.18,2.56,2.4,5.11,3.61,7.67c-0.13,0.44-0.27,0.88-0.4,1.32c-0.11,0.44-0.21,0.89-0.31,1.34c-2.33,1.61-4.66,3.21-6.96,4.83
	c-0.85,0.59-1.69,1.19-2.53,1.79c0.84,0.6,1.68,1.2,2.53,1.79c2.3,1.62,4.63,3.23,6.96,4.83c0.1,0.45,0.21,0.89,0.31,1.34
	c0.13,0.44,0.26,0.88,0.4,1.32c-1.22,2.56-2.43,5.11-3.61,7.67c-0.44,0.94-0.87,1.88-1.3,2.82c1.03,0.1,2.06,0.2,3.09,0.29
	c2.8,0.26,5.62,0.48,8.44,0.71c0.31,0.33,0.63,0.67,0.94,1c0.33,0.31,0.67,0.63,1,0.94c0.23,2.82,0.45,5.64,0.71,8.44
	c0.09,1.03,0.19,2.06,0.29,3.09c0.94-0.43,1.88-0.86,2.82-1.3c2.56-1.18,5.11-2.39,7.67-3.61c0.44,0.13,0.88,0.27,1.32,0.4
	c0.45,0.11,0.89,0.21,1.34,0.32c1.61,2.33,3.21,4.66,4.83,6.96c0.59,0.85,1.19,1.69,1.79,2.53c0.6-0.84,1.2-1.68,1.79-2.53
	c1.62-2.3,3.23-4.63,4.83-6.96c0.45-0.1,0.89-0.21,1.34-0.32c0.44-0.13,0.88-0.26,1.32-0.4c2.56,1.22,5.11,2.43,7.67,3.61
	c0.94,0.44,1.88,0.87,2.82,1.3c0.1-1.03,0.2-2.06,0.29-3.09c0.26-2.8,0.48-5.62,0.71-8.44c0.34-0.31,0.67-0.63,1-0.94
	c0.31-0.33,0.63-0.67,0.94-1c2.82-0.23,5.64-0.45,8.44-0.71c1.03-0.09,2.06-0.19,3.09-0.29c-0.43-0.94-0.86-1.88-1.3-2.82
	c-1.18-2.56-2.39-5.11-3.61-7.67c0.13-0.44,0.27-0.88,0.4-1.32c0.11-0.44,0.21-0.89,0.32-1.34c2.33-1.61,4.66-3.21,6.96-4.83
	c0.85-0.59,1.69-1.19,2.53-1.79c-0.84-0.6-1.68-1.2-2.53-1.79c-2.3-1.62-4.63-3.23-6.96-4.83c-0.1-0.45-0.21-0.89-0.32-1.34
	c-0.13-0.44-0.26-0.88-0.4-1.32c1.22-2.56,2.43-5.11,3.61-7.67c0.44-0.94,0.87-1.88,1.3-2.82c-1.03-0.1-2.06-0.2-3.09-0.29
	c-2.8-0.26-5.62-0.48-8.44-0.71c-0.31-0.33-0.63-0.67-0.94-1c-0.33-0.31-0.67-0.63-1-0.94c-0.23-2.82-0.45-5.64-0.71-8.44
	c-0.09-1.03-0.19-2.06-0.29-3.09c-0.94,0.43-1.88,0.86-2.82,1.3c-2.56,1.18-5.11,2.39-7.67,3.61c-0.44-0.13-0.88-0.27-1.32-0.4
	c-0.44-0.11-0.89-0.21-1.34-0.32c-1.61-2.33-3.21-4.66-4.83-6.96C233.99,194.96,233.39,194.11,232.79,193.27z"/>
</svg>
